<svg xmlns="http://www.w3.org/2000/svg" xmlns:xlink="http://www.w3.org/1999/xlink" xmlns:inkscape="http://www.inkscape.org/namespaces/inkscape" version="1.1" width="466.355" height="208.524" viewBox="0 0 466.355 208.524">
<path transform="matrix(1,0,0,-1,166.44,6.3320009)" stroke-width=".79701" stroke-linecap="butt" stroke-miterlimit="10" stroke-linejoin="miter" fill="none" stroke="#000000" d="M-134.6469-107.71751H265.18348"/>
<path transform="matrix(1,0,0,-1,429.1584,114.04951)" d="M5.44046 0 1.28699 1.5706 2.66432 0 1.28699-1.5706Z"/>
<path transform="matrix(1,0,0,-1,429.1584,114.04951)" stroke-width=".79701" stroke-linecap="butt" stroke-miterlimit="10" stroke-linejoin="miter" fill="none" stroke="#000000" d="M5.44046 0 1.28699 1.5706 2.66432 0 1.28699-1.5706Z"/>
<text xml:space="preserve" transform="matrix(.95 0 -0 .95 21.963196 203.9974)" font-size="11.9552" font-family="CMSS12"><tspan y="-90.532" x="439.264 447.2501 449.9998 459.2531">Time</tspan></text>
<text fill="#009600" xml:space="preserve" transform="matrix(.95 0 -0 .95 .15770698 206.72156)" font-size="14.3462" font-family="NimbusRomNo9L" font-weight="bold"><tspan y="-36.049" x="3.154 11.130488 17.500203 24.673302 30.784783 37.154497 45.13098 51.500696 57.870409">Searchers</tspan></text>
<text fill="#46b4dc" xml:space="preserve" transform="matrix(.95 0 -0 .95 .6404972 201.2671)" font-size="14.3462" font-family="NimbusRomNo9L" font-weight="bold"><tspan y="-145.138" x="12.81 21.059067 28.232167 34.458417 41.631517 48.00123">Target</tspan></text>
<path transform="matrix(1,0,0,-1,166.44,6.3320009)" d="M-44.37917-124.54839H-90.2677C-92.46864-124.54839-94.2528-126.33255-94.2528-128.5335V-140.76029C-94.2528-142.96123-92.46864-144.74539-90.2677-144.74539H-44.37917C-42.17822-144.74539-40.39406-142.96123-40.39406-140.76029V-128.5335C-40.39406-126.33255-42.17822-124.54839-44.37917-124.54839ZM-94.2528-144.74539" fill="#e6f4e6"/>
<path transform="matrix(1,0,0,-1,166.44,6.3320009)" stroke-width=".79701" stroke-linecap="butt" stroke-miterlimit="10" stroke-linejoin="miter" fill="none" stroke="#000000" d="M-44.37917-124.54839H-90.2677C-92.46864-124.54839-94.2528-126.33255-94.2528-128.5335V-140.76029C-94.2528-142.96123-92.46864-144.74539-90.2677-144.74539H-44.37917C-42.17822-144.74539-40.39406-142.96123-40.39406-140.76029V-128.5335C-40.39406-126.33255-42.17822-124.54839-44.37917-124.54839ZM-94.2528-144.74539"/>
<text xml:space="preserve" transform="matrix(.95 0 -0 .95 3.6094514 205.2628)" font-size="9.9626" font-family="CMSSBX10" font-weight="bold"><tspan y="-65.224" x="77.822 84.51687 89.9963 94.200519 96.75094 100.775829 103.32625 108.80568">Position</tspan></text>
<text fill="#009600" xml:space="preserve" transform="matrix(.95 0 -0 .95 3.6094514 205.2628)" font-size="9.9626" font-family="NimbusRomNo9L" font-weight="bold"><tspan y="-65.224" x="117.709">q</tspan></text>
<path transform="matrix(1,0,0,-1,166.44,6.3320009)" d="M-44.37917-178.40715H-90.2677C-92.46864-178.40715-94.2528-180.19133-94.2528-182.39226V-194.61905C-94.2528-196.81999-92.46864-198.60416-90.2677-198.60416H-44.37917C-42.17822-198.60416-40.39406-196.81999-40.39406-194.61905V-182.39226C-40.39406-180.19133-42.17822-178.40715-44.37917-178.40715ZM-94.2528-198.60416" fill="#e6f4e6"/>
<path transform="matrix(1,0,0,-1,166.44,6.3320009)" stroke-width=".79701" stroke-linecap="butt" stroke-miterlimit="10" stroke-linejoin="miter" fill="none" stroke="#000000" d="M-44.37917-178.40715H-90.2677C-92.46864-178.40715-94.2528-180.19133-94.2528-182.39226V-194.61905C-94.2528-196.81999-92.46864-198.60416-90.2677-198.60416H-44.37917C-42.17822-198.60416-40.39406-196.81999-40.39406-194.61905V-182.39226C-40.39406-180.19133-42.17822-178.40715-44.37917-178.40715ZM-94.2528-198.60416"/>
<text xml:space="preserve" transform="matrix(.95 0 -0 .95 3.6094514 208.00057)" font-size="9.9626" font-family="CMSSBX10" font-weight="bold"><tspan y="-10.469" x="77.089 84.092708 89.572139 95.161159 99.18604 102.89213 108.37156 110.92198">Controls</tspan></text>
<text fill="#009600" xml:space="preserve" transform="matrix(.95 0 -0 .95 3.6094514 208.00057)" font-size="9.9626" font-family="NimbusRomNo9L" font-weight="bold"><tspan y="-10.469" x="118.442">u</tspan></text>
<path transform="matrix(1,0,0,-1,166.44,6.3320009)" d="M-44.37917 5.93379H-90.2677C-92.46864 5.93379-94.2528 4.14963-94.2528 1.94868V-55.80745C-94.2528-58.00839-92.46864-59.79256-90.2677-59.79256H-44.37917C-42.17822-59.79256-40.39406-58.00839-40.39406-55.80745V1.94868C-40.39406 4.14963-42.17822 5.93379-44.37917 5.93379ZM-94.2528-59.79256" fill="#ecf8fc"/>
<path transform="matrix(1,0,0,-1,166.44,6.3320009)" stroke-width=".79701" stroke-linecap="butt" stroke-miterlimit="10" stroke-linejoin="miter" fill="none" stroke="#000000" d="M-44.37917 5.93379H-90.2677C-92.46864 5.93379-94.2528 4.14963-94.2528 1.94868V-55.80745C-94.2528-58.00839-92.46864-59.79256-90.2677-59.79256H-44.37917C-42.17822-59.79256-40.39406-58.00839-40.39406-55.80745V1.94868C-40.39406 4.14963-42.17822 5.93379-44.37917 5.93379ZM-94.2528-59.79256"/>
<text xml:space="preserve" transform="matrix(.95 0 -0 .95 3.6094514 198.44635)" font-size="9.9626" font-family="CMSSBX10" font-weight="bold"><tspan y="-201.553" x="76.064 83.06771 86.773799 92.25323 97.84225 103.07261 108.66163 111.21205 113.762477 116.3129 120.028949">Probability</tspan><tspan y="-189.59799" x="84.674 90.26302 95.35391 100.94293 105.14715 107.69757 111.41362">density</tspan><tspan y="-177.64299" x="82.014 85.361438 90.950458 96.539478 101.41119 105.43607 107.986499 113.46593">function</tspan><tspan y="-165.68799" x="80.831 86.31043 92.97541 97.0003 101.93178 105.63786 111.117298 116.20818">oftarget</tspan><tspan y="-153.732" x="82.654 88.55186 94.03129 98.22554 100.77596 104.80085 107.35127 112.8307">position</tspan></text>
<text fill="#46b4dc" xml:space="preserve" transform="matrix(.95 0 -0 .95 3.6094514 198.44635)" font-size="9.9626" font-family="NimbusRomNo9L" font-style="italic"><tspan y="-141.777" x="88.53">p</tspan></text>
<text fill="#46b4dc" xml:space="preserve" transform="matrix(.95 0 -0 .95 3.6094514 198.44635)" font-size="9.9626" font-family="CMR10"><tspan y="-141.777" x="93.511">(</tspan></text>
<text fill="#46b4dc" xml:space="preserve" transform="matrix(.95 0 -0 .95 3.6094514 198.44635)" font-size="9.9626" font-family="NimbusRomNo9L" font-weight="bold"><tspan y="-141.777" x="97.377">x</tspan></text>
<text fill="#46b4dc" xml:space="preserve" transform="matrix(.95 0 -0 .95 3.6094514 198.44635)" font-size="9.9626" font-family="CMMI10" font-style="italic"><tspan y="-141.777" x="102.358">,</tspan></text>
<text fill="#46b4dc" xml:space="preserve" transform="matrix(.95 0 -0 .95 3.6094514 198.44635)" font-size="9.9626" font-family="NimbusRomNo9L" font-style="italic"><tspan y="-141.777" x="105.975">t</tspan></text>
<text fill="#46b4dc" xml:space="preserve" transform="matrix(.95 0 -0 .95 3.6094514 198.44635)" font-size="9.9626" font-family="CMR10"><tspan y="-141.777" x="109.422">)</tspan></text>
<path transform="matrix(1,0,0,-1,166.44,6.3320009)" d="M-11.45692-134.6469C-11.45692-133.53803-12.3558-132.63915-13.46468-132.63915-14.57353-132.63915-15.47243-133.53803-15.47243-134.6469-15.47243-135.75576-14.57353-136.65465-13.46468-136.65465-12.3558-136.65465-11.45692-135.75576-11.45692-134.6469ZM-13.46468-134.6469" fill="#009600"/>
<text fill="#009600" xml:space="preserve" transform="matrix(.95 0 -0 .95 7.0334017 205.56964)" font-size="9.9626" font-family="NimbusRomNo9L" font-weight="bold"><tspan y="-59.087" x="140.668">q</tspan></text>
<text fill="#009600" xml:space="preserve" transform="matrix(.95 0 -0 .95 7.0334017 205.56964)" font-size="7.3723" font-family="NimbusRomNo9L" font-style="italic"><tspan y="-57.438005" x="146.207">k</tspan></text>
<path transform="matrix(1,0,0,-1,166.44,6.3320009)" stroke-width="1.19553" stroke-linecap="butt" stroke-miterlimit="10" stroke-linejoin="miter" fill="none" stroke="#009600" d="M-33.66139-134.64398-20.8181-134.6437"/>
<path transform="matrix(1,0,0,-1,142.40998,140.97571)" d="M6.66628 0 1.93044 1.79556 3.5108 0 1.93044-1.79556Z" fill="#009600"/>
<path transform="matrix(1,0,0,-1,142.40998,140.97571)" stroke-width="1.19553" stroke-linecap="butt" stroke-miterlimit="10" stroke-linejoin="miter" fill="none" stroke="#009600" d="M6.66628 0 1.93044 1.79556 3.5108 0 1.93044-1.79556Z"/>
<path transform="matrix(1,0,0,-1,166.44,6.3320009)" d="M-11.45692-188.50566C-11.45692-187.3968-12.3558-186.49791-13.46468-186.49791-14.57353-186.49791-15.47243-187.3968-15.47243-188.50566-15.47243-189.61454-14.57353-190.51343-13.46468-190.51343-12.3558-190.51343-11.45692-189.61454-11.45692-188.50566ZM-13.46468-188.50566" fill="#009600"/>
<text fill="#009600" xml:space="preserve" transform="matrix(.95 0 -0 .95 7.0334017 208.2594)" font-size="9.9626" font-family="NimbusRomNo9L" font-weight="bold"><tspan y="-5.292" x="140.668">u</tspan></text>
<text fill="#009600" xml:space="preserve" transform="matrix(.95 0 -0 .95 7.0334017 208.2594)" font-size="7.3723" font-family="NimbusRomNo9L" font-style="italic"><tspan y="-3.6429997" x="146.207">k</tspan></text>
<path transform="matrix(1,0,0,-1,166.44,6.3320009)" stroke-width="1.19553" stroke-linecap="butt" stroke-miterlimit="10" stroke-linejoin="miter" fill="none" stroke="#009600" d="M-33.66139-188.50159-20.8181-188.50118"/>
<path transform="matrix(1,0,0,-1,142.40998,194.83318)" d="M6.66628 0 1.93044 1.79556 3.5108 0 1.93044-1.79556Z" fill="#009600"/>
<path transform="matrix(1,0,0,-1,142.40998,194.83318)" stroke-width="1.19553" stroke-linecap="butt" stroke-miterlimit="10" stroke-linejoin="miter" fill="none" stroke="#009600" d="M6.66628 0 1.93044 1.79556 3.5108 0 1.93044-1.79556Z"/>
<path transform="matrix(1,0,0,-1,166.44,6.3320009)" d="M-11.45692-26.92937C-11.45692-25.82051-12.3558-24.92162-13.46468-24.92162-14.57353-24.92162-15.47243-25.82051-15.47243-26.92937-15.47243-28.03824-14.57353-28.93712-13.46468-28.93712-12.3558-28.93712-11.45692-28.03824-11.45692-26.92937ZM-13.46468-26.92937" fill="#46b4dc"/>
<text fill="#46b4dc" xml:space="preserve" transform="matrix(.95 0 -0 .95 6.401169 200.31505)" font-size="9.9626" font-family="NimbusRomNo9L" font-style="italic"><tspan y="-164.179" x="128.77">p</tspan></text>
<text fill="#46b4dc" xml:space="preserve" transform="matrix(.95 0 -0 .95 6.401169 200.31505)" font-size="9.9626" font-family="CMR10"><tspan y="-164.179" x="133.752">(</tspan></text>
<text fill="#46b4dc" xml:space="preserve" transform="matrix(.95 0 -0 .95 6.401169 200.31505)" font-size="9.9626" font-family="NimbusRomNo9L" font-weight="bold"><tspan y="-164.179" x="137.617">x</tspan></text>
<text fill="#46b4dc" xml:space="preserve" transform="matrix(.95 0 -0 .95 6.401169 200.31505)" font-size="9.9626" font-family="CMMI10" font-style="italic"><tspan y="-164.179" x="142.598">,</tspan></text>
<text fill="#46b4dc" xml:space="preserve" transform="matrix(.95 0 -0 .95 6.401169 200.31505)" font-size="9.9626" font-family="NimbusRomNo9L" font-style="italic"><tspan y="-164.179" x="146.216">t</tspan></text>
<text fill="#46b4dc" xml:space="preserve" transform="matrix(.95 0 -0 .95 6.401169 200.31505)" font-size="7.3723" font-family="NimbusRomNo9L" font-style="italic"><tspan y="-162.53" x="148.985">k</tspan></text>
<text fill="#46b4dc" xml:space="preserve" transform="matrix(.95 0 -0 .95 6.401169 200.31505)" font-size="9.9626" font-family="CMR10"><tspan y="-164.179" x="152.882">)</tspan></text>
<path transform="matrix(1,0,0,-1,166.44,6.3320009)" stroke-width="1.19553" stroke-linecap="butt" stroke-miterlimit="10" stroke-linejoin="miter" fill="none" stroke="#46b4dc" d="M-33.66139-26.92877H-20.81813"/>
<path transform="matrix(1,0,0,-1,142.40995,33.260774)" d="M6.66628 0 1.93044 1.79556 3.5108 0 1.93044-1.79556Z" fill="#46b4dc"/>
<path transform="matrix(1,0,0,-1,142.40995,33.260774)" stroke-width="1.19553" stroke-linecap="butt" stroke-miterlimit="10" stroke-linejoin="miter" fill="none" stroke="#46b4dc" d="M6.66628 0 1.93044 1.79556 3.5108 0 1.93044-1.79556Z"/>
<path transform="matrix(1,0,0,-1,166.44,6.3320009)" d="M65.97586-26.92818C65.97586-23.95366 63.5646-21.5424 60.59007-21.5424 57.61555-21.5424 55.20428-23.95366 55.20428-26.92818 55.20428-29.90271 57.61555-32.31396 60.59007-32.31396 63.5646-32.31396 65.97586-29.90271 65.97586-26.92818ZM60.59007-26.92818" fill="#ffffff"/>
<path transform="matrix(1,0,0,-1,166.44,6.3320009)" stroke-width=".99628" stroke-linecap="butt" stroke-miterlimit="10" stroke-linejoin="miter" fill="none" stroke="#46b4dc" d="M65.97586-26.92818C65.97586-23.95366 63.5646-21.5424 60.59007-21.5424 57.61555-21.5424 55.20428-23.95366 55.20428-26.92818 55.20428-29.90271 57.61555-32.31396 60.59007-32.31396 63.5646-32.31396 65.97586-29.90271 65.97586-26.92818ZM60.59007-26.92818"/>
<path transform="matrix(1,0,0,-1,166.44,6.3320009)" stroke-width=".99628" stroke-linecap="butt" stroke-miterlimit="10" stroke-linejoin="miter" fill="none" stroke="#46b4dc" d="M56.15074-26.92818H65.0294"/>
<path transform="matrix(1,0,0,-1,166.44,6.3320009)" stroke-width=".99628" stroke-linecap="butt" stroke-miterlimit="10" stroke-linejoin="miter" fill="none" stroke="#46b4dc" d="M60.59007-31.36751V-22.48886"/>
<text fill="#46b4dc" xml:space="preserve" transform="matrix(.95 0 -0 .95 7.849106 199.40055)" font-size="8.9664" font-family="NimbusRomNo9L" font-weight="bold"><tspan y="-182.469" x="156.982 162.96259 167.35613 171.83933 174.33199 179.3173 182.30312 184.79578 189.27898 196.5059 199.49172 204.97019 210.44866 216.42925">Evolution(FPE)</tspan></text>
<path transform="matrix(1,0,0,-1,166.44,6.3320009)" stroke-width="1.19553" stroke-linecap="butt" stroke-miterlimit="10" stroke-linejoin="miter" fill="none" stroke="#46b4dc" d="M-11.2674-26.92877H50.04884"/>
<path transform="matrix(1,0,0,-1,213.27692,33.260774)" d="M6.66628 0 1.93044 1.79556 3.5108 0 1.93044-1.79556Z" fill="#46b4dc"/>
<path transform="matrix(1,0,0,-1,213.27692,33.260774)" stroke-width="1.19553" stroke-linecap="butt" stroke-miterlimit="10" stroke-linejoin="miter" fill="none" stroke="#46b4dc" d="M6.66628 0 1.93044 1.79556 3.5108 0 1.93044-1.79556Z"/>
<path transform="matrix(1,0,0,-1,166.44,6.3320009)" stroke-width="1.19553" stroke-linecap="butt" stroke-miterlimit="10" stroke-linejoin="miter" fill="none" stroke="#ff0000" d="M-13.46437-132.44699V-80.78522H60.5914V-37.47133"/>
<path transform="matrix(0,-1,-1,-0,227.0314,47.01527)" d="M6.66628 0 1.93044 1.79556 3.5108 0 1.93044-1.79556Z" fill="#ff0000"/>
<path transform="matrix(0,-1,-1,-0,227.0314,47.01527)" stroke-width="1.19553" stroke-linecap="butt" stroke-miterlimit="10" stroke-linejoin="miter" fill="none" stroke="#ff0000" d="M6.66628 0 1.93044 1.79556 3.5108 0 1.93044-1.79556Z"/>
<text fill="#ff0000" xml:space="preserve" transform="matrix(.95 0 -0 .95 7.5991518 202.2204)" font-size="8.9664" font-family="NimbusRomNo9L" font-weight="bold"><tspan y="-126.072" x="151.983 158.95886 163.94419 167.43212 171.4132 175.30461 179.69815 184.18135 187.16716 189.65982 194.14302 201.36995 206.35527 211.34059 216.32592 220.80912 223.79492">Observationupdate</tspan></text>
<path transform="matrix(1,0,0,-1,166.44,6.3320009)" d="M65.97586-134.64105C65.97586-131.66654 63.5646-129.25527 60.59007-129.25527 57.61555-129.25527 55.20428-131.66654 55.20428-134.64105 55.20428-137.61559 57.61555-140.02684 60.59007-140.02684 63.5646-140.02684 65.97586-137.61559 65.97586-134.64105ZM60.59007-134.64105" fill="#ffffff"/>
<path transform="matrix(1,0,0,-1,166.44,6.3320009)" stroke-width=".99628" stroke-linecap="butt" stroke-miterlimit="10" stroke-linejoin="miter" fill="none" stroke="#009600" d="M65.97586-134.64105C65.97586-131.66654 63.5646-129.25527 60.59007-129.25527 57.61555-129.25527 55.20428-131.66654 55.20428-134.64105 55.20428-137.61559 57.61555-140.02684 60.59007-140.02684 63.5646-140.02684 65.97586-137.61559 65.97586-134.64105ZM60.59007-134.64105"/>
<path transform="matrix(1,0,0,-1,166.44,6.3320009)" stroke-width=".99628" stroke-linecap="butt" stroke-miterlimit="10" stroke-linejoin="miter" fill="none" stroke="#009600" d="M56.15074-134.64105H65.0294"/>
<path transform="matrix(1,0,0,-1,166.44,6.3320009)" stroke-width=".99628" stroke-linecap="butt" stroke-miterlimit="10" stroke-linejoin="miter" fill="none" stroke="#009600" d="M60.59007-139.0804V-130.20174"/>
<path transform="matrix(1,0,0,-1,166.44,6.3320009)" stroke-width="1.19553" stroke-linecap="butt" stroke-miterlimit="10" stroke-linejoin="miter" fill="none" stroke="#009600" d="M-11.26741-134.64392 50.04884-134.64398"/>
<path transform="matrix(1,0,0,-1,213.27692,140.97599)" d="M6.66628 0 1.93044 1.79556 3.5108 0 1.93044-1.79556Z" fill="#009600"/>
<path transform="matrix(1,0,0,-1,213.27692,140.97599)" stroke-width="1.19553" stroke-linecap="butt" stroke-miterlimit="10" stroke-linejoin="miter" fill="none" stroke="#009600" d="M6.66628 0 1.93044 1.79556 3.5108 0 1.93044-1.79556Z"/>
<path transform="matrix(1,0,0,-1,166.44,6.3320009)" stroke-width="1.19553" stroke-linecap="butt" stroke-miterlimit="10" stroke-linejoin="miter" fill="none" stroke="#009600" d="M-11.26741-188.50151 60.5914-188.50159V-145.18656"/>
<path transform="matrix(0,-1,-1,-0,227.0314,154.73049)" d="M6.66628 0 1.93044 1.79556 3.5108 0 1.93044-1.79556Z" fill="#009600"/>
<path transform="matrix(0,-1,-1,-0,227.0314,154.73049)" stroke-width="1.19553" stroke-linecap="butt" stroke-miterlimit="10" stroke-linejoin="miter" fill="none" stroke="#009600" d="M6.66628 0 1.93044 1.79556 3.5108 0 1.93044-1.79556Z"/>
<text fill="#009600" xml:space="preserve" transform="matrix(.95 0 -0 .95 7.4489595 206.2599)" font-size="8.9664" font-family="NimbusRomNo9L" font-weight="bold"><tspan y="-45.282" x="148.979 153.96433 157.9454 162.4286 166.24829 170.22937 175.21469 179.19577 183.17685 186.66478 191.8922 196.87752 201.36072 206.34604 210.82924 218.29825 220.79091 224.77199">Searchers&#x2019;dynamics</tspan></text>
<path transform="matrix(1,0,0,-1,166.44,6.3320009)" d="M123.18996-26.92937C123.18996-25.82051 122.29106-24.92162 121.1822-24.92162 120.07333-24.92162 119.17444-25.82051 119.17444-26.92937 119.17444-28.03824 120.07333-28.93712 121.1822-28.93712 122.29106-28.93712 123.18996-28.03824 123.18996-26.92937ZM121.1822-26.92937" fill="#46b4dc"/>
<text fill="#46b4dc" xml:space="preserve" transform="matrix(.95 0 -0 .95 12.402145 200.31505)" font-size="9.9626" font-family="NimbusRomNo9L" font-style="italic"><tspan y="-164.179" x="248.79">p</tspan></text>
<text fill="#46b4dc" xml:space="preserve" transform="matrix(.95 0 -0 .95 12.402145 200.31505)" font-size="9.9626" font-family="CMR10"><tspan y="-164.179" x="253.77199">(</tspan></text>
<text fill="#46b4dc" xml:space="preserve" transform="matrix(.95 0 -0 .95 12.402145 200.31505)" font-size="9.9626" font-family="NimbusRomNo9L" font-weight="bold"><tspan y="-164.179" x="257.637">x</tspan></text>
<text fill="#46b4dc" xml:space="preserve" transform="matrix(.95 0 -0 .95 12.402145 200.31505)" font-size="9.9626" font-family="CMMI10" font-style="italic"><tspan y="-164.179" x="262.61799">,</tspan></text>
<text fill="#46b4dc" xml:space="preserve" transform="matrix(.95 0 -0 .95 12.402145 200.31505)" font-size="9.9626" font-family="NimbusRomNo9L" font-style="italic"><tspan y="-164.179" x="266.236">t</tspan></text>
<text fill="#46b4dc" xml:space="preserve" transform="matrix(.95 0 -0 .95 12.402145 200.31505)" font-size="7.3723" font-family="NimbusRomNo9L" font-style="italic"><tspan y="-162.53" x="269.005">k</tspan></text>
<text fill="#46b4dc" xml:space="preserve" transform="matrix(.95 0 -0 .95 12.402145 200.31505)" font-size="7.3723" font-family="CMR10"><tspan y="-162.53" x="272.404">+</tspan></text>
<text fill="#46b4dc" xml:space="preserve" transform="matrix(.95 0 -0 .95 12.402145 200.31505)" font-size="7.3723" font-family="NimbusRomNo9L"><tspan y="-162.53" x="278.132">1</tspan></text>
<text fill="#46b4dc" xml:space="preserve" transform="matrix(.95 0 -0 .95 12.402145 200.31505)" font-size="9.9626" font-family="CMR10"><tspan y="-164.179" x="282.31599">)</tspan></text>
<path transform="matrix(1,0,0,-1,166.44,6.3320009)" stroke-width="1.19553" stroke-linecap="butt" stroke-miterlimit="10" stroke-linejoin="miter" fill="none" stroke="#46b4dc" d="M65.9772-26.92877H113.82582"/>
<path transform="matrix(1,0,0,-1,277.0539,33.260774)" d="M6.66628 0 1.93044 1.79556 3.5108 0 1.93044-1.79556Z" fill="#46b4dc"/>
<path transform="matrix(1,0,0,-1,277.0539,33.260774)" stroke-width="1.19553" stroke-linecap="butt" stroke-miterlimit="10" stroke-linejoin="miter" fill="none" stroke="#46b4dc" d="M6.66628 0 1.93044 1.79556 3.5108 0 1.93044-1.79556Z"/>
<path transform="matrix(1,0,0,-1,166.44,6.3320009)" d="M123.18996-134.6469C123.18996-133.53803 122.29106-132.63915 121.1822-132.63915 120.07333-132.63915 119.17444-133.53803 119.17444-134.6469 119.17444-135.75576 120.07333-136.65465 121.1822-136.65465 122.29106-136.65465 123.18996-135.75576 123.18996-134.6469ZM121.1822-134.6469" fill="#009600"/>
<text fill="#009600" xml:space="preserve" transform="matrix(.95 0 -0 .95 13.318359 205.56964)" font-size="9.9626" font-family="NimbusRomNo9L" font-weight="bold"><tspan y="-59.087" x="266.367">q</tspan></text>
<text fill="#009600" xml:space="preserve" transform="matrix(.95 0 -0 .95 13.318359 205.56964)" font-size="7.3723" font-family="NimbusRomNo9L" font-style="italic"><tspan y="-57.438005" x="271.906">k</tspan></text>
<text fill="#009600" xml:space="preserve" transform="matrix(.95 0 -0 .95 13.318359 205.56964)" font-size="7.3723" font-family="CMR10"><tspan y="-57.438005" x="275.305">+</tspan></text>
<text fill="#009600" xml:space="preserve" transform="matrix(.95 0 -0 .95 13.318359 205.56964)" font-size="7.3723" font-family="NimbusRomNo9L"><tspan y="-57.438005" x="281.033">1</tspan></text>
<path transform="matrix(1,0,0,-1,166.44,6.3320009)" stroke-width="1.19553" stroke-linecap="butt" stroke-miterlimit="10" stroke-linejoin="miter" fill="none" stroke="#009600" d="M65.9772-134.64398 113.82585-134.64392"/>
<path transform="matrix(1,0,0,-1,277.05393,140.97592)" d="M6.66628 0 1.93044 1.79556 3.5108 0 1.93044-1.79556Z" fill="#009600"/>
<path transform="matrix(1,0,0,-1,277.05393,140.97592)" stroke-width="1.19553" stroke-linecap="butt" stroke-miterlimit="10" stroke-linejoin="miter" fill="none" stroke="#009600" d="M6.66628 0 1.93044 1.79556 3.5108 0 1.93044-1.79556Z"/>
<path transform="matrix(1,0,0,-1,166.44,6.3320009)" d="M123.18996-188.50566C123.18996-187.3968 122.29106-186.49791 121.1822-186.49791 120.07333-186.49791 119.17444-187.3968 119.17444-188.50566 119.17444-189.61454 120.07333-190.51343 121.1822-190.51343 122.29106-190.51343 123.18996-189.61454 123.18996-188.50566ZM121.1822-188.50566" fill="#009600"/>
<text fill="#009600" xml:space="preserve" transform="matrix(.95 0 -0 .95 13.318359 208.2594)" font-size="9.9626" font-family="NimbusRomNo9L" font-weight="bold"><tspan y="-5.292" x="266.367">u</tspan></text>
<text fill="#009600" xml:space="preserve" transform="matrix(.95 0 -0 .95 13.318359 208.2594)" font-size="7.3723" font-family="NimbusRomNo9L" font-style="italic"><tspan y="-3.6429997" x="271.906">k</tspan></text>
<text fill="#009600" xml:space="preserve" transform="matrix(.95 0 -0 .95 13.318359 208.2594)" font-size="7.3723" font-family="CMR10"><tspan y="-3.6429997" x="275.305">+</tspan></text>
<text fill="#009600" xml:space="preserve" transform="matrix(.95 0 -0 .95 13.318359 208.2594)" font-size="7.3723" font-family="NimbusRomNo9L"><tspan y="-3.6429997" x="281.033">1</tspan></text>
<path transform="matrix(1,0,0,-1,166.44,6.3320009)" stroke-width="1.19553" stroke-linecap="butt" stroke-miterlimit="10" stroke-linejoin="miter" fill="none" stroke="#ff0000" d="M121.17957-29.12576V-80.78755C106.3067-80.78755 94.2502-92.84406 94.2502-107.71692V-188.50507H116.0228"/>
<path transform="matrix(1,0,0,-1,279.25086,194.83707)" d="M6.66628 0 1.93044 1.79556 3.5108 0 1.93044-1.79556Z" fill="#ff0000"/>
<path transform="matrix(1,0,0,-1,279.25086,194.83707)" stroke-width="1.19553" stroke-linecap="butt" stroke-miterlimit="10" stroke-linejoin="miter" fill="none" stroke="#ff0000" d="M6.66628 0 1.93044 1.79556 3.5108 0 1.93044-1.79556Z"/>
<text fill="#ff0000" xml:space="preserve" transform="matrix(.95 0 -0 .95 13.510925 203.23035)" font-size="8.9664" font-family="NimbusRomNo9L" font-weight="bold"><tspan y="-105.873" x="270.218 277.19386 282.17918 285.16499 287.65763 295.12666 297.6193 301.60038 306.08357 309.06938 311.562 316.04524">Optimization</tspan></text>
<path transform="matrix(1,0,0,-1,166.44,6.3320009)" stroke-width="1.19553" stroke-linecap="butt" stroke-miterlimit="10" stroke-linejoin="miter" fill="none" stroke="#46b4dc" d="M123.37656-26.92877H169.88156"/>
<path transform="matrix(1,0,0,-1,333.10963,33.260774)" d="M6.66628 0 1.93044 1.79556 3.5108 0 1.93044-1.79556Z" fill="#46b4dc"/>
<path transform="matrix(1,0,0,-1,333.10963,33.260774)" stroke-width="1.19553" stroke-linecap="butt" stroke-miterlimit="10" stroke-linejoin="miter" fill="none" stroke="#46b4dc" d="M6.66628 0 1.93044 1.79556 3.5108 0 1.93044-1.79556Z"/>
<path transform="matrix(1,0,0,-1,166.44,6.3320009)" stroke-width="1.19553" stroke-linecap="butt" stroke-miterlimit="10" stroke-linejoin="miter" fill="none" stroke="#009600" d="M123.37654-134.64392 169.88156-134.64398"/>
<path transform="matrix(1,0,0,-1,333.10963,140.97599)" d="M6.66628 0 1.93044 1.79556 3.5108 0 1.93044-1.79556Z" fill="#009600"/>
<path transform="matrix(1,0,0,-1,333.10963,140.97599)" stroke-width="1.19553" stroke-linecap="butt" stroke-miterlimit="10" stroke-linejoin="miter" fill="none" stroke="#009600" d="M6.66628 0 1.93044 1.79556 3.5108 0 1.93044-1.79556Z"/>
<path transform="matrix(1,0,0,-1,166.44,6.3320009)" stroke-width="1.19553" stroke-linecap="butt" stroke-miterlimit="10" stroke-linejoin="miter" fill="none" stroke="#009600" d="M123.37654-188.50144 169.88156-188.50159"/>
<path transform="matrix(1,0,0,-1,333.10963,194.83359)" d="M6.66628 0 1.93044 1.79556 3.5108 0 1.93044-1.79556Z" fill="#009600"/>
<path transform="matrix(1,0,0,-1,333.10963,194.83359)" stroke-width="1.19553" stroke-linecap="butt" stroke-miterlimit="10" stroke-linejoin="miter" fill="none" stroke="#009600" d="M6.66628 0 1.93044 1.79556 3.5108 0 1.93044-1.79556Z"/>
</svg>
