<svg xmlns="http://www.w3.org/2000/svg" xmlns:xlink="http://www.w3.org/1999/xlink" xmlns:inkscape="http://www.inkscape.org/namespaces/inkscape" version="1.1" width="522.095" height="302.44" viewBox="0 0 522.095 302.44">
<path transform="matrix(1,0,0,-1,193.764,72.925)" stroke-width=".79701" stroke-linecap="butt" stroke-miterlimit="10" stroke-linejoin="miter" fill="none" stroke="#000000" d="M-134.6469-107.71751H265.18348"/>
<path transform="matrix(1,0,0,-1,456.4824,180.64252)" d="M5.44046 0 1.28699 1.5706 2.66432 0 1.28699-1.5706Z"/>
<path transform="matrix(1,0,0,-1,456.4824,180.64252)" stroke-width=".79701" stroke-linecap="butt" stroke-miterlimit="10" stroke-linejoin="miter" fill="none" stroke="#000000" d="M5.44046 0 1.28699 1.5706 2.66432 0 1.28699-1.5706Z"/>
<text xml:space="preserve" transform="matrix(.95 0 -0 .95 23.329407 296.5417)" font-size="11.9552" font-family="NimbusRomNo9L" font-weight="bold"><tspan y="-117.966" x="466.588 474.34696 477.6705 487.62919">Time</tspan></text>
<text fill="#b30000" xml:space="preserve" transform="matrix(.95 0 -0 .95 9.017014 289.40989)" font-size="17.2154" font-family="CMSSBX10" font-weight="bold"><tspan y="-260.602" x="180.34 192.9589 202.61673 211.65482 221.31266 228.26767 232.6748 241.2825 256.3976 270.08387 279.7417 287.0066 295.80366 302.20777 310.81547 319.85356 326.80857 331.2157 340.68418">AdaptiveObservation</tspan></text>
<path transform="matrix(.95,0,0,-.95,180.34001,47.138048)" stroke-width=".637" stroke-linecap="butt" stroke-miterlimit="10" stroke-linejoin="miter" fill="none" stroke="#b30000" d="M0 0H169.994"/>
<text fill="#009600" xml:space="preserve" transform="matrix(.95 0 -0 .95 1.5239124 299.27143)" font-size="14.3462" font-family="NimbusRomNo9L" font-weight="bold"><tspan y="-63.372" x="30.478 38.45449 44.824205 51.997304 58.108785 64.4785 72.45499 78.8247 85.19441">Searchers</tspan></text>
<text fill="#46b4dc" xml:space="preserve" transform="matrix(.95 0 -0 .95 2.0067025 293.81697)" font-size="14.3462" font-family="NimbusRomNo9L" font-weight="bold"><tspan y="-172.461" x="40.134 48.383066 55.556165 61.782415 68.95551 75.325229">Target</tspan></text>
<path transform="matrix(1,0,0,-1,193.764,72.925)" d="M-44.37917-124.54839H-90.2677C-92.46864-124.54839-94.2528-126.33255-94.2528-128.5335V-140.76029C-94.2528-142.96123-92.46864-144.74539-90.2677-144.74539H-44.37917C-42.17822-144.74539-40.39406-142.96123-40.39406-140.76029V-128.5335C-40.39406-126.33255-42.17822-124.54839-44.37917-124.54839ZM-94.2528-144.74539" fill="#e6f4e6"/>
<path transform="matrix(1,0,0,-1,193.764,72.925)" stroke-width=".79701" stroke-linecap="butt" stroke-miterlimit="10" stroke-linejoin="miter" fill="none" stroke="#000000" d="M-44.37917-124.54839H-90.2677C-92.46864-124.54839-94.2528-126.33255-94.2528-128.5335V-140.76029C-94.2528-142.96123-92.46864-144.74539-90.2677-144.74539H-44.37917C-42.17822-144.74539-40.39406-142.96123-40.39406-140.76029V-128.5335C-40.39406-126.33255-42.17822-124.54839-44.37917-124.54839ZM-94.2528-144.74539"/>
<text xml:space="preserve" transform="matrix(.95 0 -0 .95 4.975662 297.81266)" font-size="9.9626" font-family="CMSSBX10" font-weight="bold"><tspan y="-92.547" x="105.146 111.84087 117.320308 121.52452 124.07494 128.09984 130.65027 136.1297">Position</tspan></text>
<text fill="#009600" xml:space="preserve" transform="matrix(.95 0 -0 .95 4.975662 297.81266)" font-size="9.9626" font-family="NimbusRomNo9L" font-weight="bold"><tspan y="-92.547" x="145.033">q</tspan></text>
<path transform="matrix(1,0,0,-1,193.764,72.925)" d="M-44.37917-178.40715H-90.2677C-92.46864-178.40715-94.2528-180.19133-94.2528-182.39226V-194.61905C-94.2528-196.81999-92.46864-198.60416-90.2677-198.60416H-44.37917C-42.17822-198.60416-40.39406-196.81999-40.39406-194.61905V-182.39226C-40.39406-180.19133-42.17822-178.40715-44.37917-178.40715ZM-94.2528-198.60416" fill="#e6f4e6"/>
<path transform="matrix(1,0,0,-1,193.764,72.925)" stroke-width=".79701" stroke-linecap="butt" stroke-miterlimit="10" stroke-linejoin="miter" fill="none" stroke="#000000" d="M-44.37917-178.40715H-90.2677C-92.46864-178.40715-94.2528-180.19133-94.2528-182.39226V-194.61905C-94.2528-196.81999-92.46864-198.60416-90.2677-198.60416H-44.37917C-42.17822-198.60416-40.39406-196.81999-40.39406-194.61905V-182.39226C-40.39406-180.19133-42.17822-178.40715-44.37917-178.40715ZM-94.2528-198.60416"/>
<text xml:space="preserve" transform="matrix(.95 0 -0 .95 4.975662 300.5504)" font-size="9.9626" font-family="CMSSBX10" font-weight="bold"><tspan y="-37.792" x="104.413 111.41671 116.89614 122.48516 126.51005 130.21614 135.69557 138.246">Controls</tspan></text>
<text fill="#009600" xml:space="preserve" transform="matrix(.95 0 -0 .95 4.975662 300.5504)" font-size="9.9626" font-family="NimbusRomNo9L" font-weight="bold"><tspan y="-37.792" x="145.766">u</tspan></text>
<path transform="matrix(1,0,0,-1,193.764,72.925)" d="M-44.37917 5.93379H-90.2677C-92.46864 5.93379-94.2528 4.14963-94.2528 1.94868V-55.80745C-94.2528-58.00839-92.46864-59.79256-90.2677-59.79256H-44.37917C-42.17822-59.79256-40.39406-58.00839-40.39406-55.80745V1.94868C-40.39406 4.14963-42.17822 5.93379-44.37917 5.93379ZM-94.2528-59.79256" fill="#ecf8fc"/>
<path transform="matrix(1,0,0,-1,193.764,72.925)" stroke-width=".79701" stroke-linecap="butt" stroke-miterlimit="10" stroke-linejoin="miter" fill="none" stroke="#000000" d="M-44.37917 5.93379H-90.2677C-92.46864 5.93379-94.2528 4.14963-94.2528 1.94868V-55.80745C-94.2528-58.00839-92.46864-59.79256-90.2677-59.79256H-44.37917C-42.17822-59.79256-40.39406-58.00839-40.39406-55.80745V1.94868C-40.39406 4.14963-42.17822 5.93379-44.37917 5.93379ZM-94.2528-59.79256"/>
<text xml:space="preserve" transform="matrix(.95 0 -0 .95 4.975662 290.99623)" font-size="9.9626" font-family="CMSSBX10" font-weight="bold"><tspan y="-228.876" x="103.388 110.39171 114.09779 119.577228 125.166248 130.3966 135.98563 138.53606 141.08649 143.63692 147.35297">Probability</tspan><tspan y="-216.921" x="111.998 117.58702 122.67791 128.26692 132.47115 135.02158 138.73763">density</tspan><tspan y="-204.966" x="109.338 112.68543 118.27445 123.86347 128.73519 132.76007 135.3105 140.78993">function</tspan><tspan y="-193.011" x="108.155 113.63443 120.29941 124.324298 129.25579 132.96187 138.4413 143.5322">oftarget</tspan><tspan y="-181.056" x="109.977 115.874858 121.35429 125.5585 128.10894 132.13382 134.67429 140.15372">position</tspan></text>
<text fill="#46b4dc" xml:space="preserve" transform="matrix(.95 0 -0 .95 4.975662 290.99623)" font-size="9.9626" font-family="NimbusRomNo9L" font-style="italic"><tspan y="-169.1" x="115.854">p</tspan></text>
<text fill="#46b4dc" xml:space="preserve" transform="matrix(.95 0 -0 .95 4.975662 290.99623)" font-size="9.9626" font-family="CMR10"><tspan y="-169.1" x="120.835">(</tspan></text>
<text fill="#46b4dc" xml:space="preserve" transform="matrix(.95 0 -0 .95 4.975662 290.99623)" font-size="9.9626" font-family="NimbusRomNo9L" font-weight="bold"><tspan y="-169.1" x="124.701">x</tspan></text>
<text fill="#46b4dc" xml:space="preserve" transform="matrix(.95 0 -0 .95 4.975662 290.99623)" font-size="9.9626" font-family="CMMI10" font-style="italic"><tspan y="-169.1" x="129.68199">,</tspan></text>
<text fill="#46b4dc" xml:space="preserve" transform="matrix(.95 0 -0 .95 4.975662 290.99623)" font-size="9.9626" font-family="NimbusRomNo9L" font-style="italic"><tspan y="-169.1" x="133.299">t</tspan></text>
<text fill="#46b4dc" xml:space="preserve" transform="matrix(.95 0 -0 .95 4.975662 290.99623)" font-size="9.9626" font-family="CMR10"><tspan y="-169.1" x="136.746">)</tspan></text>
<path transform="matrix(1,0,0,-1,193.764,72.925)" d="M-11.45692-134.6469C-11.45692-133.53803-12.3558-132.63915-13.46468-132.63915-14.57353-132.63915-15.47243-133.53803-15.47243-134.6469-15.47243-135.75576-14.57353-136.65465-13.46468-136.65465-12.3558-136.65465-11.45692-135.75576-11.45692-134.6469ZM-13.46468-134.6469" fill="#009600"/>
<text fill="#009600" xml:space="preserve" transform="matrix(.95 0 -0 .95 8.399597 298.1195)" font-size="9.9626" font-family="NimbusRomNo9L" font-weight="bold"><tspan y="-86.41" x="167.992">q</tspan></text>
<text fill="#009600" xml:space="preserve" transform="matrix(.95 0 -0 .95 8.399597 298.1195)" font-size="7.3723" font-family="NimbusRomNo9L" font-style="italic"><tspan y="-84.761" x="173.531">k</tspan></text>
<path transform="matrix(1,0,0,-1,193.764,72.925)" stroke-width="1.19553" stroke-linecap="butt" stroke-miterlimit="10" stroke-linejoin="miter" fill="none" stroke="#009600" d="M-33.66139-134.64398-20.8181-134.6437"/>
<path transform="matrix(1,0,0,-1,169.73398,207.56871)" d="M6.66628 0 1.93044 1.79556 3.5108 0 1.93044-1.79556Z" fill="#009600"/>
<path transform="matrix(1,0,0,-1,169.73398,207.56871)" stroke-width="1.19553" stroke-linecap="butt" stroke-miterlimit="10" stroke-linejoin="miter" fill="none" stroke="#009600" d="M6.66628 0 1.93044 1.79556 3.5108 0 1.93044-1.79556Z"/>
<path transform="matrix(1,0,0,-1,193.764,72.925)" d="M-11.45692-188.50566C-11.45692-187.3968-12.3558-186.49791-13.46468-186.49791-14.57353-186.49791-15.47243-187.3968-15.47243-188.50566-15.47243-189.61454-14.57353-190.51343-13.46468-190.51343-12.3558-190.51343-11.45692-189.61454-11.45692-188.50566ZM-13.46468-188.50566" fill="#009600"/>
<text fill="#009600" xml:space="preserve" transform="matrix(.95 0 -0 .95 8.399597 300.80928)" font-size="9.9626" font-family="NimbusRomNo9L" font-weight="bold"><tspan y="-32.615" x="167.992">u</tspan></text>
<text fill="#009600" xml:space="preserve" transform="matrix(.95 0 -0 .95 8.399597 300.80928)" font-size="7.3723" font-family="NimbusRomNo9L" font-style="italic"><tspan y="-30.966002" x="173.531">k</tspan></text>
<path transform="matrix(1,0,0,-1,193.764,72.925)" stroke-width="1.19553" stroke-linecap="butt" stroke-miterlimit="10" stroke-linejoin="miter" fill="none" stroke="#009600" d="M-33.66139-188.50159-20.8181-188.50118"/>
<path transform="matrix(1,0,0,-1,169.73398,261.42619)" d="M6.66628 0 1.93044 1.79556 3.5108 0 1.93044-1.79556Z" fill="#009600"/>
<path transform="matrix(1,0,0,-1,169.73398,261.42619)" stroke-width="1.19553" stroke-linecap="butt" stroke-miterlimit="10" stroke-linejoin="miter" fill="none" stroke="#009600" d="M6.66628 0 1.93044 1.79556 3.5108 0 1.93044-1.79556Z"/>
<path transform="matrix(1,0,0,-1,193.764,72.925)" d="M-11.45692-26.92937C-11.45692-25.82051-12.3558-24.92162-13.46468-24.92162-14.57353-24.92162-15.47243-25.82051-15.47243-26.92937-15.47243-28.03824-14.57353-28.93712-13.46468-28.93712-12.3558-28.93712-11.45692-28.03824-11.45692-26.92937ZM-13.46468-26.92937" fill="#46b4dc"/>
<text fill="#46b4dc" xml:space="preserve" transform="matrix(.95 0 -0 .95 7.7673647 292.8649)" font-size="9.9626" font-family="NimbusRomNo9L" font-style="italic"><tspan y="-191.502" x="156.094">p</tspan></text>
<text fill="#46b4dc" xml:space="preserve" transform="matrix(.95 0 -0 .95 7.7673647 292.8649)" font-size="9.9626" font-family="CMR10"><tspan y="-191.502" x="161.07599">(</tspan></text>
<text fill="#46b4dc" xml:space="preserve" transform="matrix(.95 0 -0 .95 7.7673647 292.8649)" font-size="9.9626" font-family="NimbusRomNo9L" font-weight="bold"><tspan y="-191.502" x="164.941">x</tspan></text>
<text fill="#46b4dc" xml:space="preserve" transform="matrix(.95 0 -0 .95 7.7673647 292.8649)" font-size="9.9626" font-family="CMMI10" font-style="italic"><tspan y="-191.502" x="169.922">,</tspan></text>
<text fill="#46b4dc" xml:space="preserve" transform="matrix(.95 0 -0 .95 7.7673647 292.8649)" font-size="9.9626" font-family="NimbusRomNo9L" font-style="italic"><tspan y="-191.502" x="173.54">t</tspan></text>
<text fill="#46b4dc" xml:space="preserve" transform="matrix(.95 0 -0 .95 7.7673647 292.8649)" font-size="7.3723" font-family="NimbusRomNo9L" font-style="italic"><tspan y="-189.853" x="176.30899">k</tspan></text>
<text fill="#46b4dc" xml:space="preserve" transform="matrix(.95 0 -0 .95 7.7673647 292.8649)" font-size="9.9626" font-family="CMR10"><tspan y="-191.502" x="180.206">)</tspan></text>
<path transform="matrix(1,0,0,-1,193.764,72.925)" stroke-width="1.19553" stroke-linecap="butt" stroke-miterlimit="10" stroke-linejoin="miter" fill="none" stroke="#46b4dc" d="M-33.66139-26.92877H-20.81813"/>
<path transform="matrix(1,0,0,-1,169.73395,99.853778)" d="M6.66628 0 1.93044 1.79556 3.5108 0 1.93044-1.79556Z" fill="#46b4dc"/>
<path transform="matrix(1,0,0,-1,169.73395,99.853778)" stroke-width="1.19553" stroke-linecap="butt" stroke-miterlimit="10" stroke-linejoin="miter" fill="none" stroke="#46b4dc" d="M6.66628 0 1.93044 1.79556 3.5108 0 1.93044-1.79556Z"/>
<path transform="matrix(1,0,0,-1,193.764,72.925)" d="M65.97586-26.92818C65.97586-23.95366 63.5646-21.5424 60.59007-21.5424 57.61555-21.5424 55.20428-23.95366 55.20428-26.92818 55.20428-29.90271 57.61555-32.31396 60.59007-32.31396 63.5646-32.31396 65.97586-29.90271 65.97586-26.92818ZM60.59007-26.92818" fill="#ffffff"/>
<path transform="matrix(1,0,0,-1,193.764,72.925)" stroke-width=".99628" stroke-linecap="butt" stroke-miterlimit="10" stroke-linejoin="miter" fill="none" stroke="#46b4dc" d="M65.97586-26.92818C65.97586-23.95366 63.5646-21.5424 60.59007-21.5424 57.61555-21.5424 55.20428-23.95366 55.20428-26.92818 55.20428-29.90271 57.61555-32.31396 60.59007-32.31396 63.5646-32.31396 65.97586-29.90271 65.97586-26.92818ZM60.59007-26.92818"/>
<path transform="matrix(1,0,0,-1,193.764,72.925)" stroke-width=".99628" stroke-linecap="butt" stroke-miterlimit="10" stroke-linejoin="miter" fill="none" stroke="#46b4dc" d="M56.15074-26.92818H65.0294"/>
<path transform="matrix(1,0,0,-1,193.764,72.925)" stroke-width=".99628" stroke-linecap="butt" stroke-miterlimit="10" stroke-linejoin="miter" fill="none" stroke="#46b4dc" d="M60.59007-31.36751V-22.48886"/>
<text fill="#46b4dc" xml:space="preserve" transform="matrix(.95 0 -0 .95 9.2153019 291.9504)" font-size="8.9664" font-family="NimbusRomNo9L" font-weight="bold"><tspan y="-209.792" x="184.306 190.28659 194.68013 199.16333 201.65599 206.64131 209.62712 212.11978 216.60298 223.82991 226.81572 232.29419 237.77266 243.75325">Evolution(FPE)</tspan></text>
<path transform="matrix(1,0,0,-1,193.764,72.925)" stroke-width="1.19553" stroke-linecap="butt" stroke-miterlimit="10" stroke-linejoin="miter" fill="none" stroke="#46b4dc" d="M-11.2674-26.92877H50.04884"/>
<path transform="matrix(1,0,0,-1,240.60092,99.853778)" d="M6.66628 0 1.93044 1.79556 3.5108 0 1.93044-1.79556Z" fill="#46b4dc"/>
<path transform="matrix(1,0,0,-1,240.60092,99.853778)" stroke-width="1.19553" stroke-linecap="butt" stroke-miterlimit="10" stroke-linejoin="miter" fill="none" stroke="#46b4dc" d="M6.66628 0 1.93044 1.79556 3.5108 0 1.93044-1.79556Z"/>
<path transform="matrix(1,0,0,-1,193.764,72.925)" stroke-width="1.19553" stroke-linecap="butt" stroke-miterlimit="10" stroke-linejoin="miter" fill="none" stroke="#ff0000" d="M-13.46437-132.44699V-80.78522H60.5914V-37.47133"/>
<path transform="matrix(0,-1,-1,-0,254.35541,113.60828)" d="M6.66628 0 1.93044 1.79556 3.5108 0 1.93044-1.79556Z" fill="#ff0000"/>
<path transform="matrix(0,-1,-1,-0,254.35541,113.60828)" stroke-width="1.19553" stroke-linecap="butt" stroke-miterlimit="10" stroke-linejoin="miter" fill="none" stroke="#ff0000" d="M6.66628 0 1.93044 1.79556 3.5108 0 1.93044-1.79556Z"/>
<text fill="#ff0000" xml:space="preserve" transform="matrix(.95 0 -0 .95 8.965347 294.77027)" font-size="8.9664" font-family="NimbusRomNo9L" font-weight="bold"><tspan y="-153.395" x="179.307 186.28287 191.26819 194.75612 198.7372 202.62862 207.02216 211.50536 214.49117 216.98383 221.46703 228.69396 233.67928 238.6646 243.64992 248.13312 251.11893">Observationupdate</tspan></text>
<path transform="matrix(1,0,0,-1,193.764,72.925)" d="M65.97586-134.64105C65.97586-131.66654 63.5646-129.25527 60.59007-129.25527 57.61555-129.25527 55.20428-131.66654 55.20428-134.64105 55.20428-137.61559 57.61555-140.02684 60.59007-140.02684 63.5646-140.02684 65.97586-137.61559 65.97586-134.64105ZM60.59007-134.64105" fill="#ffffff"/>
<path transform="matrix(1,0,0,-1,193.764,72.925)" stroke-width=".99628" stroke-linecap="butt" stroke-miterlimit="10" stroke-linejoin="miter" fill="none" stroke="#009600" d="M65.97586-134.64105C65.97586-131.66654 63.5646-129.25527 60.59007-129.25527 57.61555-129.25527 55.20428-131.66654 55.20428-134.64105 55.20428-137.61559 57.61555-140.02684 60.59007-140.02684 63.5646-140.02684 65.97586-137.61559 65.97586-134.64105ZM60.59007-134.64105"/>
<path transform="matrix(1,0,0,-1,193.764,72.925)" stroke-width=".99628" stroke-linecap="butt" stroke-miterlimit="10" stroke-linejoin="miter" fill="none" stroke="#009600" d="M56.15074-134.64105H65.0294"/>
<path transform="matrix(1,0,0,-1,193.764,72.925)" stroke-width=".99628" stroke-linecap="butt" stroke-miterlimit="10" stroke-linejoin="miter" fill="none" stroke="#009600" d="M60.59007-139.0804V-130.20174"/>
<path transform="matrix(1,0,0,-1,193.764,72.925)" stroke-width="1.19553" stroke-linecap="butt" stroke-miterlimit="10" stroke-linejoin="miter" fill="none" stroke="#009600" d="M-11.26741-134.64392 50.04884-134.64398"/>
<path transform="matrix(1,0,0,-1,240.60092,207.56899)" d="M6.66628 0 1.93044 1.79556 3.5108 0 1.93044-1.79556Z" fill="#009600"/>
<path transform="matrix(1,0,0,-1,240.60092,207.56899)" stroke-width="1.19553" stroke-linecap="butt" stroke-miterlimit="10" stroke-linejoin="miter" fill="none" stroke="#009600" d="M6.66628 0 1.93044 1.79556 3.5108 0 1.93044-1.79556Z"/>
<path transform="matrix(1,0,0,-1,193.764,72.925)" stroke-width="1.19553" stroke-linecap="butt" stroke-miterlimit="10" stroke-linejoin="miter" fill="none" stroke="#009600" d="M-11.26741-188.50151 60.5914-188.50159V-145.18656"/>
<path transform="matrix(0,-1,-1,-0,254.35541,221.32349)" d="M6.66628 0 1.93044 1.79556 3.5108 0 1.93044-1.79556Z" fill="#009600"/>
<path transform="matrix(0,-1,-1,-0,254.35541,221.32349)" stroke-width="1.19553" stroke-linecap="butt" stroke-miterlimit="10" stroke-linejoin="miter" fill="none" stroke="#009600" d="M6.66628 0 1.93044 1.79556 3.5108 0 1.93044-1.79556Z"/>
<text fill="#009600" xml:space="preserve" transform="matrix(.95 0 -0 .95 8.81517 298.80976)" font-size="8.9664" font-family="NimbusRomNo9L" font-weight="bold"><tspan y="-72.605" x="176.303 181.28832 185.2694 189.7526 193.57228 197.55336 202.53868 206.51976 210.50084 213.98877 219.21619 224.2015 228.68471 233.67003 238.15323 245.62224 248.1149 252.09598">Searchers&#x2019;dynamics</tspan></text>
<path transform="matrix(1,0,0,-1,193.764,72.925)" d="M123.18996-26.92937C123.18996-25.82051 122.29106-24.92162 121.1822-24.92162 120.07333-24.92162 119.17444-25.82051 119.17444-26.92937 119.17444-28.03824 120.07333-28.93712 121.1822-28.93712 122.29106-28.93712 123.18996-28.03824 123.18996-26.92937ZM121.1822-26.92937" fill="#46b4dc"/>
<text fill="#46b4dc" xml:space="preserve" transform="matrix(.95 0 -0 .95 13.768341 292.8649)" font-size="9.9626" font-family="NimbusRomNo9L" font-style="italic"><tspan y="-191.502" x="276.114">p</tspan></text>
<text fill="#46b4dc" xml:space="preserve" transform="matrix(.95 0 -0 .95 13.768341 292.8649)" font-size="9.9626" font-family="CMR10"><tspan y="-191.502" x="281.095">(</tspan></text>
<text fill="#46b4dc" xml:space="preserve" transform="matrix(.95 0 -0 .95 13.768341 292.8649)" font-size="9.9626" font-family="NimbusRomNo9L" font-weight="bold"><tspan y="-191.502" x="284.961">x</tspan></text>
<text fill="#46b4dc" xml:space="preserve" transform="matrix(.95 0 -0 .95 13.768341 292.8649)" font-size="9.9626" font-family="CMMI10" font-style="italic"><tspan y="-191.502" x="289.942">,</tspan></text>
<text fill="#46b4dc" xml:space="preserve" transform="matrix(.95 0 -0 .95 13.768341 292.8649)" font-size="9.9626" font-family="NimbusRomNo9L" font-style="italic"><tspan y="-191.502" x="293.56">t</tspan></text>
<text fill="#46b4dc" xml:space="preserve" transform="matrix(.95 0 -0 .95 13.768341 292.8649)" font-size="7.3723" font-family="NimbusRomNo9L" font-style="italic"><tspan y="-189.853" x="296.329">k</tspan></text>
<text fill="#46b4dc" xml:space="preserve" transform="matrix(.95 0 -0 .95 13.768341 292.8649)" font-size="7.3723" font-family="CMR10"><tspan y="-189.853" x="299.728">+</tspan></text>
<text fill="#46b4dc" xml:space="preserve" transform="matrix(.95 0 -0 .95 13.768341 292.8649)" font-size="7.3723" font-family="NimbusRomNo9L"><tspan y="-189.853" x="305.456">1</tspan></text>
<text fill="#46b4dc" xml:space="preserve" transform="matrix(.95 0 -0 .95 13.768341 292.8649)" font-size="9.9626" font-family="CMR10"><tspan y="-191.502" x="309.63999">)</tspan></text>
<path transform="matrix(1,0,0,-1,193.764,72.925)" stroke-width="1.19553" stroke-linecap="butt" stroke-miterlimit="10" stroke-linejoin="miter" fill="none" stroke="#46b4dc" d="M65.9772-26.92877H113.82582"/>
<path transform="matrix(1,0,0,-1,304.3779,99.853778)" d="M6.66628 0 1.93044 1.79556 3.5108 0 1.93044-1.79556Z" fill="#46b4dc"/>
<path transform="matrix(1,0,0,-1,304.3779,99.853778)" stroke-width="1.19553" stroke-linecap="butt" stroke-miterlimit="10" stroke-linejoin="miter" fill="none" stroke="#46b4dc" d="M6.66628 0 1.93044 1.79556 3.5108 0 1.93044-1.79556Z"/>
<path transform="matrix(1,0,0,-1,193.764,72.925)" d="M123.18996-134.6469C123.18996-133.53803 122.29106-132.63915 121.1822-132.63915 120.07333-132.63915 119.17444-133.53803 119.17444-134.6469 119.17444-135.75576 120.07333-136.65465 121.1822-136.65465 122.29106-136.65465 123.18996-135.75576 123.18996-134.6469ZM121.1822-134.6469" fill="#009600"/>
<text fill="#009600" xml:space="preserve" transform="matrix(.95 0 -0 .95 14.68454 298.1195)" font-size="9.9626" font-family="NimbusRomNo9L" font-weight="bold"><tspan y="-86.41" x="293.691">q</tspan></text>
<text fill="#009600" xml:space="preserve" transform="matrix(.95 0 -0 .95 14.68454 298.1195)" font-size="7.3723" font-family="NimbusRomNo9L" font-style="italic"><tspan y="-84.761" x="299.23">k</tspan></text>
<text fill="#009600" xml:space="preserve" transform="matrix(.95 0 -0 .95 14.68454 298.1195)" font-size="7.3723" font-family="CMR10"><tspan y="-84.761" x="302.629">+</tspan></text>
<text fill="#009600" xml:space="preserve" transform="matrix(.95 0 -0 .95 14.68454 298.1195)" font-size="7.3723" font-family="NimbusRomNo9L"><tspan y="-84.761" x="308.357">1</tspan></text>
<path transform="matrix(1,0,0,-1,193.764,72.925)" stroke-width="1.19553" stroke-linecap="butt" stroke-miterlimit="10" stroke-linejoin="miter" fill="none" stroke="#009600" d="M65.9772-134.64398 113.82585-134.64392"/>
<path transform="matrix(1,0,0,-1,304.37794,207.56893)" d="M6.66628 0 1.93044 1.79556 3.5108 0 1.93044-1.79556Z" fill="#009600"/>
<path transform="matrix(1,0,0,-1,304.37794,207.56893)" stroke-width="1.19553" stroke-linecap="butt" stroke-miterlimit="10" stroke-linejoin="miter" fill="none" stroke="#009600" d="M6.66628 0 1.93044 1.79556 3.5108 0 1.93044-1.79556Z"/>
<path transform="matrix(1,0,0,-1,193.764,72.925)" d="M123.18996-188.50566C123.18996-187.3968 122.29106-186.49791 121.1822-186.49791 120.07333-186.49791 119.17444-187.3968 119.17444-188.50566 119.17444-189.61454 120.07333-190.51343 121.1822-190.51343 122.29106-190.51343 123.18996-189.61454 123.18996-188.50566ZM121.1822-188.50566" fill="#009600"/>
<text fill="#009600" xml:space="preserve" transform="matrix(.95 0 -0 .95 14.68454 300.80928)" font-size="9.9626" font-family="NimbusRomNo9L" font-weight="bold"><tspan y="-32.615" x="293.691">u</tspan></text>
<text fill="#009600" xml:space="preserve" transform="matrix(.95 0 -0 .95 14.68454 300.80928)" font-size="7.3723" font-family="NimbusRomNo9L" font-style="italic"><tspan y="-30.966002" x="299.23">k</tspan></text>
<text fill="#009600" xml:space="preserve" transform="matrix(.95 0 -0 .95 14.68454 300.80928)" font-size="7.3723" font-family="CMR10"><tspan y="-30.966002" x="302.629">+</tspan></text>
<text fill="#009600" xml:space="preserve" transform="matrix(.95 0 -0 .95 14.68454 300.80928)" font-size="7.3723" font-family="NimbusRomNo9L"><tspan y="-30.966002" x="308.357">1</tspan></text>
<path transform="matrix(1,0,0,-1,193.764,72.925)" stroke-width="1.19553" stroke-linecap="butt" stroke-miterlimit="10" stroke-linejoin="miter" fill="none" stroke="#ff0000" d="M121.17957-29.12576V-80.78755C106.3067-80.78755 94.2502-92.84406 94.2502-107.71692V-188.50507H116.0228"/>
<path transform="matrix(1,0,0,-1,306.5749,261.43006)" d="M6.66628 0 1.93044 1.79556 3.5108 0 1.93044-1.79556Z" fill="#ff0000"/>
<path transform="matrix(1,0,0,-1,306.5749,261.43006)" stroke-width="1.19553" stroke-linecap="butt" stroke-miterlimit="10" stroke-linejoin="miter" fill="none" stroke="#ff0000" d="M6.66628 0 1.93044 1.79556 3.5108 0 1.93044-1.79556Z"/>
<text fill="#ff0000" xml:space="preserve" transform="matrix(.95 0 -0 .95 14.877106 295.7802)" font-size="8.9664" font-family="NimbusRomNo9L" font-weight="bold"><tspan y="-133.196" x="297.542 304.51786 309.50318 312.48899 314.98164 322.45066 324.9433 328.92439 333.4076 336.3934 338.88606 343.36927">Optimization</tspan></text>
<path transform="matrix(1,0,0,-1,193.764,72.925)" stroke-width="1.19553" stroke-linecap="butt" stroke-miterlimit="10" stroke-linejoin="miter" fill="none" stroke="#46b4dc" d="M123.37656-26.92877H169.88156"/>
<path transform="matrix(1,0,0,-1,360.43367,99.853778)" d="M6.66628 0 1.93044 1.79556 3.5108 0 1.93044-1.79556Z" fill="#46b4dc"/>
<path transform="matrix(1,0,0,-1,360.43367,99.853778)" stroke-width="1.19553" stroke-linecap="butt" stroke-miterlimit="10" stroke-linejoin="miter" fill="none" stroke="#46b4dc" d="M6.66628 0 1.93044 1.79556 3.5108 0 1.93044-1.79556Z"/>
<path transform="matrix(1,0,0,-1,193.764,72.925)" stroke-width="1.19553" stroke-linecap="butt" stroke-miterlimit="10" stroke-linejoin="miter" fill="none" stroke="#009600" d="M123.37654-134.64392 169.88156-134.64398"/>
<path transform="matrix(1,0,0,-1,360.43367,207.56899)" d="M6.66628 0 1.93044 1.79556 3.5108 0 1.93044-1.79556Z" fill="#009600"/>
<path transform="matrix(1,0,0,-1,360.43367,207.56899)" stroke-width="1.19553" stroke-linecap="butt" stroke-miterlimit="10" stroke-linejoin="miter" fill="none" stroke="#009600" d="M6.66628 0 1.93044 1.79556 3.5108 0 1.93044-1.79556Z"/>
<path transform="matrix(1,0,0,-1,193.764,72.925)" stroke-width="1.19553" stroke-linecap="butt" stroke-miterlimit="10" stroke-linejoin="miter" fill="none" stroke="#009600" d="M123.37654-188.50144 169.88156-188.50159"/>
<path transform="matrix(1,0,0,-1,360.43367,261.42658)" d="M6.66628 0 1.93044 1.79556 3.5108 0 1.93044-1.79556Z" fill="#009600"/>
<path transform="matrix(1,0,0,-1,360.43367,261.42658)" stroke-width="1.19553" stroke-linecap="butt" stroke-miterlimit="10" stroke-linejoin="miter" fill="none" stroke="#009600" d="M6.66628 0 1.93044 1.79556 3.5108 0 1.93044-1.79556Z"/>
<path transform="matrix(1,0,0,-1,193.764,72.925)" stroke-width=".79701" stroke-linecap="butt" stroke-miterlimit="10" stroke-linejoin="miter" fill="none" stroke="#ff0000" d="M-193.36824-224.1382V67.546C-193.36824 70.29718-191.13805 72.52739-188.38686 72.52739H322.95469C325.70585 72.52739 327.93605 70.29718 327.93605 67.546V-224.1382C327.93605-226.88939 325.70585-229.11959 322.95469-229.11959H-188.38686C-191.13805-229.11959-193.36824-226.88939-193.36824-224.1382ZM327.93605 72.52739"/>
</svg>
