<svg xmlns="http://www.w3.org/2000/svg" xmlns:xlink="http://www.w3.org/1999/xlink" width="699.871" height="404.465" viewBox="0 0 524.903 303.349"><path stroke-width=".797" stroke-miterlimit="10" fill="none" stroke="#000" d="M60.078 181.552h399.83"/><path d="m462.884 181.552-4.154-1.571 1.378 1.57-1.378 1.571z"/><path stroke-width=".797" stroke-miterlimit="10" fill="none" stroke="#000" d="m462.884 181.552-4.154-1.571 1.378 1.57-1.378 1.571z"/><symbol id="a"><path d="M.253.587V.048C.253.012.264 0 .301 0h.051C.39 0 .4.013.4.048v.539L.6.584c.028 0 .052 0 .052.048V.64c0 .032-.007.048-.048.048H.048C.012.688 0 .677 0 .64V.632C0 .584.024.584.052.584l.201.003z"/></symbol><symbol id="b"><path d="M.048.695C.016.695 0 .689 0 .649V.603C0 .571.01.558.047.558h.052c.048 0 .048.021.048.068 0 .048 0 .069-.048.069H.048M.14.41C.14.442.133.458.092.458H.055C.019.458.007.447.007.41V.048C.007.012.018 0 .055 0h.037C.13 0 .14.013.14.048V.41z"/></symbol><symbol id="c"><path d="M.746.325C.746.428.702.469.6.469A.175.175 0 0 1 .438.37C.422.466.337.469.295.469c-.019 0-.061 0-.106-.033a.202.202 0 0 1-.058-.07H.13v.05C.13.448.123.464.082.464H.048C.012.464 0 .453 0 .416V.048C0 .012.011 0 .048 0h.04c.038 0 .048.013.048.048v.221c0 .09.061.128.11.128.048 0 .059-.021.059-.074V.048C.305.012.316 0 .353 0h.04c.038 0 .048.013.048.048v.221c0 .09.061.128.11.128C.599.397.61.376.61.323V.048C.61.012.621 0 .658 0h.04c.038 0 .048.013.048.048v.277z"/></symbol><symbol id="d"><path d="M.4.225c.023 0 .048.001.048.046C.448.4.388.486.239.486.079.486 0 .396 0 .244 0 .08.095 0 .252 0 .29 0 .347.005.413.038c.022.011.029.014.029.026a.719.719 0 0 1-.004.044C.434.139.433.14.424.14.42.14.418.14.407.13A.228.228 0 0 0 .256.072C.143.072.131.161.128.225H.4M.129.278c.003.061.023.136.11.136.08 0 .095-.058.098-.136H.129z"/></symbol><use xlink:href="#a" transform="matrix(11.35744 0 0 -11.35744 468.002 185.493)"/><use xlink:href="#b" transform="matrix(11.35744 0 0 -11.35744 476.486 185.493)"/><use xlink:href="#c" transform="matrix(11.35744 0 0 -11.35744 479.462 185.493)"/><use xlink:href="#d" transform="matrix(11.35744 0 0 -11.35744 488.98 185.618)"/><symbol id="e"><path d="M.432.651C.417.694.388.694.368.694H.28c-.02 0-.049 0-.064-.043L.005.047C0 .034 0 .032 0 .027 0 0 .025 0 .039 0h.036c.018 0 .049 0 .063.04l.039.111h.277L.488.055C.5.02.507 0 .555 0h.054c.014 0 .039 0 .039.027 0 .005 0 .007-.005.02L.432.651M.279.449c.015.044.028.082.036.118h.001C.321.543.321.541.329.518L.424.237H.207l.072.212z"/></symbol><symbol id="f"><path d="M.462.657c0 .032-.007.048-.048.048H.377C.339.705.329.692.329.657V.43a.178.178 0 0 1-.126.05C0 .48 0 .288 0 .239 0 .193 0 0 .198 0 .24 0 .283.012.326.058.326.021.34.011.374.011h.04c.038 0 .048.013.048.048v.598M.326.136C.326.119.326.11.297.09a.11.11 0 0 0-.06-.018C.136.072.136.164.136.239c0 .075 0 .169.112.169A.11.11 0 0 0 .326.377V.136z"/></symbol><symbol id="g"><path d="M.433.327c0 .158-.152.159-.202.159A.393.393 0 0 1 .067.454C.046.445.041.442.041.431L.048.358A.013.013 0 0 1 .061.347c.005 0 .008.003.011.006A.204.204 0 0 0 .227.42c.054 0 .07-.033.07-.092V.293C.262.293 0 .291 0 .144 0 .074.056 0 .144 0 .178 0 .253.01.3.079v-.02C.3.027.307.011.348.011h.037c.038 0 .048.013.048.048v.268M.297.165C.297.072.202.072.199.072.157.072.13.108.13.146c0 .098.139.105.167.106V.165z"/></symbol><symbol id="h"><path d="M.136.233c.045-.05.1-.05.114-.05.212 0 .212.192.212.242 0 .049 0 .238-.181.238A.217.217 0 0 1 .133.605c0 .037-.014.047-.048.047H.048C.012.652 0 .641 0 .604V.048C0 .012.011 0 .048 0h.04c.038 0 .048.013.048.048v.185m0 .319c.011.01.044.033.087.033.102 0 .103-.118.103-.162 0-.04 0-.168-.113-.168A.088.088 0 0 0 .16.272C.136.289.136.294.136.312v.24z"/></symbol><symbol id="i"><path d="M.198.397h.089c.012 0 .048 0 .048.036S.299.469.287.469H.198v.083C.198.584.191.6.15.6H.119C.083.6.071.589.071.552V.469H.048C.037.469 0 .469 0 .433S.036.397.048.397h.02V.144C.068.043.104 0 .173 0c.009 0 .053 0 .105.016.017.005.075.023.075.042L.345.089C.34.109.338.115.329.115.324.115.323.114.317.108.306.1.279.078.237.078.213.078.198.095.198.161v.236z"/></symbol><symbol id="j"><path d="M.442.411C.447.425.447.427.447.43c0 .028-.025.028-.04.028H.386C.344.458.333.443.324.415L.225.113.126.415C.119.436.112.458.064.458H.04C.025.458 0 .458 0 .43 0 .427 0 .425.005.411L.124.042C.138 0 .169 0 .187 0H.26c.018 0 .049 0 .063.042l.119.369z"/></symbol><symbol id="k"><path d="M.671.364c0 .201-.073.374-.335.374C.059.738 0 .547 0 .364 0 .177.065 0 .335 0c.258 0 .336.159.336.364M.336.08C.147.08.147.289.147.38c0 .088 0 .28.188.28C.524.66.524.47.524.38c0-.089 0-.3-.188-.3z"/></symbol><symbol id="l"><path d="M.133.657c0 .032-.007.048-.048.048H.048C.012.705 0 .694 0 .657V.059C0 .023.011.011.048.011h.04c.017 0 .047 0 .048.039C.182 0 .233 0 .249 0c.213 0 .213.192.213.242C.462.29.462.48.274.48A.199.199 0 0 1 .133.424v.233M.136.373a.13.13 0 0 0 .089.035C.326.408.326.316.326.241c0-.074 0-.169-.112-.169a.098.098 0 0 0-.078.039v.262z"/></symbol><symbol id="m"><path d="M.365.152c0 .056-.03.091-.048.107C.277.295.242.301.2.309.145.319.105.327.105.366c0 .041.033.049.072.049A.183.183 0 0 0 .306.368c.01-.01.012-.01.016-.01.01 0 .012.009.013.013L.347.44c0 .016-.053.03-.064.034a.35.35 0 0 1-.098.012C.14.486.006.486.006.343A.13.13 0 0 1 .055.24C.09.208.129.201.186.19.215.185.266.176.266.132.266.085.227.078.188.078c-.044 0-.1.013-.147.069C.036.152.033.155.027.155.017.155.015.146.014.14.012.126 0 .069 0 .059 0 .041.074.018.075.017.13 0 .171 0 .188 0c.051 0 .177.004.177.152z"/></symbol><symbol id="n"><path d="M.133.23c0 .095.079.134.142.138.018.001.02.001.02.027v.047c0 .02 0 .027-.018.027C.249.469.176.459.129.351H.128v.065C.128.448.121.464.08.464H.048C.012.464 0 .453 0 .416V.048C0 .012.011 0 .048 0h.037c.038 0 .048.013.048.048V.23z"/></symbol><symbol id="o"><path d="M.487.236c0 .164-.08.25-.243.25C.077.486 0 .397 0 .236 0 .073.086 0 .243 0s.244.072.244.236M.244.078c-.108 0-.108.09-.108.17 0 .077 0 .166.107.166.108 0 .108-.088.108-.166 0-.079 0-.17-.107-.17z"/></symbol><symbol id="p"><path d="M.44.325C.44.428.396.469.294.469A.177.177 0 0 1 .131.366H.13v.05C.13.448.123.464.082.464H.048C.012.464 0 .453 0 .416V.048C0 .012.011 0 .048 0h.04c.038 0 .048.013.048.048v.221c0 .087.058.128.11.128.048 0 .058-.023.058-.074V.048C.304.016.311 0 .352 0h.04C.43 0 .44.013.44.048v.277z"/></symbol><symbol id="q"><path d="M.189.386h.048c.012 0 .048 0 .048.036S.249.458.237.458H.186v.109c0 .026 0 .066.065.066A.094.094 0 0 0 .323.605C.33.597.333.595.338.595c.013 0 .013.01.013.026v.046C.351.691.35.692.316.699.287.705.266.705.251.705.176.705.056.688.056.538v-.08C.035.458 0 .458 0 .422S.034.386.056.386V.048C.056.012.067 0 .104 0h.037c.038 0 .048.013.048.048v.338z"/></symbol><symbol id="r"><path d="M.147.268h.152c.157 0 .251.066.251.21C.55.629.452.694.298.694h-.25C.012.694 0 .683 0 .646V.048C0 .012.011 0 .048 0h.051c.038 0 .048.013.048.048v.22m.12.34c.131 0 .144-.06.144-.13C.411.411.4.347.266.347H.144v.261h.123z"/></symbol><symbol id="s"><path d="M.133.646c0 .032-.007.048-.048.048H.048C.012.694 0 .683 0 .646V.048C0 .012.011 0 .048 0h.037c.038 0 .048.013.048.048v.598z"/></symbol><symbol id="t"><path d="M.42.061a.903.903 0 0 1-.006.07c0 .003-.002.013-.012.013-.004 0-.006 0-.016-.01A.211.211 0 0 0 .24.078C.136.078.136.179.136.243c0 .081.005.165.107.165A.168.168 0 0 0 .371.362C.383.351.385.351.389.351c.01 0 .012.009.013.013l.012.069C.414.442.407.446.39.454a.295.295 0 0 1-.148.032C.093.486 0 .416 0 .241 0 .075.086 0 .237 0a.33.33 0 0 1 .154.035C.419.05.42.051.42.061z"/></symbol><symbol id="u"><path d="M.221.463C.199.468.137.491.137.548c0 .085.085.087.119.087A.204.204 0 0 0 .411.574C.427.559.428.558.432.558c.006 0 .011.003.014.018l.015.087.002.013c0 .008-.001.009-.026.022a.385.385 0 0 1-.181.04C.167.738.012.717.012.53c0-.071.037-.117.056-.137C.119.341.166.331.244.313.3.3.322.295.344.275A.093.093 0 0 0 .375.206C.375.112.289.109.256.109a.311.311 0 0 0-.207.079C.037.2.035.2.031.2.025.2.02.197.017.182L.002.095 0 .082C0 .061.104.025.109.023A.49.49 0 0 1 .256 0C.406 0 .5.067.5.222a.228.228 0 0 1-.183.219L.221.463z"/></symbol><symbol id="v"><path d="M.44.325C.44.428.396.469.294.469a.175.175 0 0 1-.16-.097H.133v.274c0 .032-.007.048-.048.048H.048C.012.694 0 .683 0 .646V.048C0 .012.011 0 .048 0h.04c.038 0 .048.013.048.048v.221c0 .087.058.128.11.128.048 0 .058-.023.058-.074V.048C.304.016.311 0 .352 0h.04C.43 0 .44.013.44.048v.277z"/></symbol><symbol id="w"><path d="M.235 1C.217 1 .215 1 .197.984.077.883 0 .712 0 .5 0 .379.025.17.192.019.213 0 .215 0 .235 0h.018C.269 0 .28 0 .28.013c0 .003 0 .005-.012.018C.205.108.136.231.136.5c0 .294.083.41.138.476C.278.981.28.983.28.987.28 1 .269 1 .253 1H.235z"/></symbol><symbol id="x"><path d="M.464.327A1.803 1.803 0 0 1 .398.149H.397C.388.185.347.284.326.337L.198.653C.181.694.149.694.131.694H.048C.012.694 0 .683 0 .646V.048C0 .012.011 0 .048 0h.027c.038 0 .048.013.048.048v.517h.001C.135.52.18.409.204.35L.32.065C.338.022.362.022.396.022c.034 0 .058 0 .076.043L.6.379c.01.024.064.16.071.186h.001V.048C.672.016.679 0 .72 0h.027c.038 0 .048.013.048.048v.598c0 .032-.007.048-.048.048H.663C.638.694.613.692.596.651L.464.327z"/></symbol><symbol id="y"><path d="M.245 0c.012 0 .048 0 .048.036S.257.072.245.072H.048C.036.072 0 .072 0 .036S.036 0 .048 0h.197z"/></symbol><symbol id="z"><path d="M.027 1C.011 1 0 1 0 .987 0 .984 0 .982.012.969.074.892.144.769.144.5.144.207.061.091.006.024 0 .017 0 .015 0 .013 0 0 .011 0 .027 0h.018c.018 0 .02 0 .038.016C.203.117.28.288.28.5.28.621.255.83.088.981.067 1 .065 1 .045 1H.027z"/></symbol><use xlink:href="#e" transform="matrix(16.35463 0 0 -16.35463 37.962 42.747)" fill="#b30000"/><use xlink:href="#f" transform="matrix(16.35463 0 0 -16.35463 49.868 42.927)" fill="#b30000"/><use xlink:href="#g" transform="matrix(16.35463 0 0 -16.35463 58.945 42.927)" fill="#b30000"/><use xlink:href="#h" transform="matrix(16.35463 0 0 -16.35463 68.022 45.92)" fill="#b30000"/><use xlink:href="#i" transform="matrix(16.35463 0 0 -16.35463 76.526 42.927)" fill="#b30000"/><use xlink:href="#b" transform="matrix(16.35463 0 0 -16.35463 83.69 42.747)" fill="#b30000"/><use xlink:href="#j" transform="matrix(16.35463 0 0 -16.35463 87.418 42.747)" fill="#b30000"/><use xlink:href="#d" transform="matrix(16.35463 0 0 -16.35463 95.677 42.927)" fill="#b30000"/><use xlink:href="#k" transform="matrix(16.35463 0 0 -16.35463 110.527 43.107)" fill="#b30000"/><use xlink:href="#l" transform="matrix(16.35463 0 0 -16.35463 123.513 42.927)" fill="#b30000"/><use xlink:href="#m" transform="matrix(16.35463 0 0 -16.35463 132.197 42.927)" fill="#b30000"/><use xlink:href="#d" transform="matrix(16.35463 0 0 -16.35463 139.099 42.927)" fill="#b30000"/><use xlink:href="#n" transform="matrix(16.35463 0 0 -16.35463 147.947 42.747)" fill="#b30000"/><use xlink:href="#j" transform="matrix(16.35463 0 0 -16.35463 153.458 42.747)" fill="#b30000"/><use xlink:href="#g" transform="matrix(16.35463 0 0 -16.35463 161.717 42.927)" fill="#b30000"/><use xlink:href="#i" transform="matrix(16.35463 0 0 -16.35463 170.124 42.927)" fill="#b30000"/><use xlink:href="#b" transform="matrix(16.35463 0 0 -16.35463 177.287 42.747)" fill="#b30000"/><use xlink:href="#o" transform="matrix(16.35463 0 0 -16.35463 181.098 42.927)" fill="#b30000"/><use xlink:href="#p" transform="matrix(16.35463 0 0 -16.35463 190.567 42.747)" fill="#b30000"/><use xlink:href="#q" transform="matrix(16.35463 0 0 -16.35463 205.237 42.747)" fill="#b30000"/><use xlink:href="#o" transform="matrix(16.35463 0 0 -16.35463 210.749 42.927)" fill="#b30000"/><use xlink:href="#n" transform="matrix(16.35463 0 0 -16.35463 219.744 42.747)" fill="#b30000"/><use xlink:href="#r" transform="matrix(16.35463 0 0 -16.35463 232.304 42.747)" fill="#b30000"/><use xlink:href="#n" transform="matrix(16.35463 0 0 -16.35463 243.31 42.747)" fill="#b30000"/><use xlink:href="#o" transform="matrix(16.35463 0 0 -16.35463 248.904 42.927)" fill="#b30000"/><use xlink:href="#l" transform="matrix(16.35463 0 0 -16.35463 258.39 42.927)" fill="#b30000"/><use xlink:href="#g" transform="matrix(16.35463 0 0 -16.35463 267.074 42.927)" fill="#b30000"/><use xlink:href="#l" transform="matrix(16.35463 0 0 -16.35463 276.15 42.927)" fill="#b30000"/><use xlink:href="#b" transform="matrix(16.35463 0 0 -16.35463 285.211 42.747)" fill="#b30000"/><use xlink:href="#s" transform="matrix(16.35463 0 0 -16.35463 289.512 42.747)" fill="#b30000"/><use xlink:href="#b" transform="matrix(16.35463 0 0 -16.35463 293.585 42.747)" fill="#b30000"/><use xlink:href="#m" transform="matrix(16.35463 0 0 -16.35463 297.395 42.927)" fill="#b30000"/><use xlink:href="#i" transform="matrix(16.35463 0 0 -16.35463 304.117 42.927)" fill="#b30000"/><use xlink:href="#b" transform="matrix(16.35463 0 0 -16.35463 311.28 42.747)" fill="#b30000"/><use xlink:href="#t" transform="matrix(16.35463 0 0 -16.35463 315.19 42.927)" fill="#b30000"/><use xlink:href="#u" transform="matrix(16.35463 0 0 -16.35463 329.385 43.107)" fill="#b30000"/><use xlink:href="#d" transform="matrix(16.35463 0 0 -16.35463 339.083 42.927)" fill="#b30000"/><use xlink:href="#g" transform="matrix(16.35463 0 0 -16.35463 347.44 42.927)" fill="#b30000"/><use xlink:href="#n" transform="matrix(16.35463 0 0 -16.35463 356.01 42.747)" fill="#b30000"/><use xlink:href="#t" transform="matrix(16.35463 0 0 -16.35463 361.702 42.927)" fill="#b30000"/><use xlink:href="#v" transform="matrix(16.35463 0 0 -16.35463 370.075 42.747)" fill="#b30000"/><use xlink:href="#w" transform="matrix(16.35463 0 0 -16.35463 385.678 46.836)" fill="#b30000"/><use xlink:href="#x" transform="matrix(16.35463 0 0 -16.35463 392.76 42.747)" fill="#b30000"/><use xlink:href="#g" transform="matrix(16.35463 0 0 -16.35463 407.773 42.927)" fill="#b30000"/><use xlink:href="#i" transform="matrix(16.35463 0 0 -16.35463 416.18 42.927)" fill="#b30000"/><use xlink:href="#v" transform="matrix(16.35463 0 0 -16.35463 423.44 42.747)" fill="#b30000"/><use xlink:href="#y" transform="matrix(16.35463 0 0 -16.35463 431.83 39.59)" fill="#b30000"/><use xlink:href="#l" transform="matrix(16.35463 0 0 -16.35463 438.634 42.927)" fill="#b30000"/><use xlink:href="#g" transform="matrix(16.35463 0 0 -16.35463 447.318 42.927)" fill="#b30000"/><use xlink:href="#m" transform="matrix(16.35463 0 0 -16.35463 455.904 42.927)" fill="#b30000"/><use xlink:href="#d" transform="matrix(16.35463 0 0 -16.35463 462.806 42.927)" fill="#b30000"/><use xlink:href="#f" transform="matrix(16.35463 0 0 -16.35463 471.261 42.927)" fill="#b30000"/><use xlink:href="#z" transform="matrix(16.35463 0 0 -16.35463 480.829 46.836)" fill="#b30000"/><path stroke-width=".60515" stroke-miterlimit="10" fill="none" stroke="#b30000" d="M37.275 48.955h449.547"/><use xlink:href="#u" transform="matrix(13.62889 0 0 -13.62889 31.146 240.44)" fill="#009600"/><use xlink:href="#d" transform="matrix(13.62889 0 0 -13.62889 39.228 240.29)" fill="#009600"/><use xlink:href="#g" transform="matrix(13.62889 0 0 -13.62889 46.192 240.29)" fill="#009600"/><use xlink:href="#n" transform="matrix(13.62889 0 0 -13.62889 53.334 240.14)" fill="#009600"/><use xlink:href="#t" transform="matrix(13.62889 0 0 -13.62889 58.09 240.29)" fill="#009600"/><use xlink:href="#v" transform="matrix(13.62889 0 0 -13.62889 65.068 240.14)" fill="#009600"/><use xlink:href="#d" transform="matrix(13.62889 0 0 -13.62889 72.319 240.29)" fill="#009600"/><use xlink:href="#n" transform="matrix(13.62889 0 0 -13.62889 79.692 240.14)" fill="#009600"/><use xlink:href="#m" transform="matrix(13.62889 0 0 -13.62889 84.353 240.29)" fill="#009600"/><symbol id="A"><path d="M.175.298c-.036 0-.05 0-.064.012C.107.314.09.329.09.355L.092.37C.139.344.198.344.219.344c.042 0 .201 0 .201.165a.168.168 0 0 1-.031.104c.017 0 .052 0 .093-.011A.043.043 0 0 1 .496.598c.008 0 .013.006.013.013L.502.649C.498.673.498.675.48.675A.257.257 0 0 1 .361.64a.25.25 0 0 1-.142.035C.177.675.018.675.018.51c0-.04.011-.09.049-.123C.04.35.04.311.04.306.04.287.046.254.067.227.052.221 0 .203 0 .139 0 .108.015.056.078.027A.417.417 0 0 1 .249 0c.059 0 .25 0 .25.142 0 .156-.141.156-.276.156H.175m.044.118c-.07 0-.073.038-.073.093s.003.094.073.094C.289.603.292.565.292.51S.289.416.219.416M.273.189c.081 0 .123-.014.123-.05C.396.072.282.072.25.072c-.04 0-.147 0-.147.07 0 .047.031.047.054.047h.116z"/></symbol><use xlink:href="#a" transform="matrix(13.62889 0 0 -13.62889 40.361 131.099)" fill="#46b4dc"/><use xlink:href="#g" transform="matrix(13.62889 0 0 -13.62889 48.975 131.249)" fill="#46b4dc"/><use xlink:href="#n" transform="matrix(13.62889 0 0 -13.62889 56.13 131.099)" fill="#46b4dc"/><use xlink:href="#A" transform="matrix(13.62889 0 0 -13.62889 60.71 133.907)" fill="#46b4dc"/><use xlink:href="#d" transform="matrix(13.62889 0 0 -13.62889 68.287 131.249)" fill="#46b4dc"/><use xlink:href="#i" transform="matrix(13.62889 0 0 -13.62889 75.101 131.249)" fill="#46b4dc"/><path d="M150.346 198.382h-45.889a3.985 3.985 0 0 0-3.985 3.986v12.226c0 2.201 1.784 3.985 3.985 3.985h45.889a3.985 3.985 0 0 0 3.985-3.985v-12.226a3.985 3.985 0 0 0-3.985-3.986zm-49.874 20.197" fill="#e6f4e6"/><path stroke-width=".797" stroke-miterlimit="10" fill="none" stroke="#000" d="M150.346 198.382h-45.889a3.985 3.985 0 0 0-3.985 3.986v12.226c0 2.201 1.784 3.985 3.985 3.985h45.889a3.985 3.985 0 0 0 3.985-3.985v-12.226a3.985 3.985 0 0 0-3.985-3.986zm-49.874 20.197"/><use xlink:href="#r" transform="matrix(9.46447 0 0 -9.46447 106.687 210.802)"/><use xlink:href="#o" transform="matrix(9.46447 0 0 -9.46447 112.479 210.906)"/><use xlink:href="#m" transform="matrix(9.46447 0 0 -9.46447 117.684 210.906)"/><use xlink:href="#b" transform="matrix(9.46447 0 0 -9.46447 121.896 210.802)"/><use xlink:href="#i" transform="matrix(9.46447 0 0 -9.46447 123.997 210.906)"/><use xlink:href="#b" transform="matrix(9.46447 0 0 -9.46447 128.143 210.802)"/><use xlink:href="#o" transform="matrix(9.46447 0 0 -9.46447 130.348 210.906)"/><use xlink:href="#p" transform="matrix(9.46447 0 0 -9.46447 135.828 210.802)"/><symbol id="B"><path d="M.308.108C.308.046.3.037.235.025V0h.267v.024C.456.033.447.042.447.082v.595H.432L.354.621C.303.664.272.678.222.678.092.678 0 .573 0 .424 0 .287.076.191.185.191c.047 0 .082.016.123.056V.108m0 .195C.298.266.273.245.239.245.177.245.146.31.146.441c0 .135.032.205.095.205.04 0 .067-.032.067-.08V.303z"/></symbol><use xlink:href="#B" transform="matrix(9.46447 0 0 -9.46447 144.039 212.742)" fill="#009600"/><path d="M150.346 252.241h-45.889a3.985 3.985 0 0 0-3.985 3.985v12.227c0 2.201 1.784 3.985 3.985 3.985h45.889a3.985 3.985 0 0 0 3.985-3.985v-12.227c0-2.2-1.784-3.985-3.985-3.985zm-49.874 20.197" fill="#e6f4e6"/><path stroke-width=".797" stroke-miterlimit="10" fill="none" stroke="#000" d="M150.346 252.241h-45.889a3.985 3.985 0 0 0-3.985 3.985v12.227c0 2.201 1.784 3.985 3.985 3.985h45.889a3.985 3.985 0 0 0 3.985-3.985v-12.227c0-2.2-1.784-3.985-3.985-3.985zm-49.874 20.197"/><symbol id="C"><path d="M.579.153a.012.012 0 0 1-.011.012C.544.165.515.1.374.1.198.1.148.208.148.358c0 .149.054.257.218.257A.238.238 0 0 0 .529.558C.535.553.538.549.545.549c.004 0 .009.005.01.009l.02.111C.576.673.575.677.567.68a.542.542 0 0 1-.198.036C.125.716 0 .597 0 .359 0 .114.127 0 .37 0a.35.35 0 0 1 .211.057c.008.005.006.012.006.012L.579.153z"/></symbol><use xlink:href="#C" transform="matrix(9.46447 0 0 -9.46447 105.705 265.652)"/><use xlink:href="#o" transform="matrix(9.46447 0 0 -9.46447 112.075 265.661)"/><use xlink:href="#p" transform="matrix(9.46447 0 0 -9.46447 117.555 265.557)"/><use xlink:href="#i" transform="matrix(9.46447 0 0 -9.46447 122.486 265.661)"/><use xlink:href="#n" transform="matrix(9.46447 0 0 -9.46447 126.698 265.557)"/><use xlink:href="#o" transform="matrix(9.46447 0 0 -9.46447 129.934 265.661)"/><use xlink:href="#s" transform="matrix(9.46447 0 0 -9.46447 135.424 265.557)"/><use xlink:href="#m" transform="matrix(9.46447 0 0 -9.46447 137.563 265.661)"/><symbol id="D"><path d="M.327.001a.495.495 0 0 0 .132.026l.062.007v.023C.477.059.465.072.465.115v.36H.264V.451C.314.447.326.435.326.392V.109C.293.076.272.065.244.065c-.041 0-.056.02-.056.071v.339H0V.451C.041.443.049.434.049.392V.14c0-.088.05-.14.133-.14.052 0 .087.016.145.066V.001z"/></symbol><use xlink:href="#D" transform="matrix(9.46447 0 0 -9.46447 144.566 265.69)" fill="#009600"/><path d="M151.766 66.48h-48.728a3.985 3.985 0 0 0-3.985 3.986v60.595a3.985 3.985 0 0 0 3.985 3.985h48.728a3.985 3.985 0 0 0 3.985-3.985V70.466c0-2.201-1.785-3.985-3.985-3.985zm-52.713 68.566" fill="#ecf8fc"/><path stroke-width=".797" stroke-miterlimit="10" fill="none" stroke="#000" d="M151.766 66.48h-48.728a3.985 3.985 0 0 0-3.985 3.986v60.595a3.985 3.985 0 0 0 3.985 3.985h48.728a3.985 3.985 0 0 0 3.985-3.985V70.466c0-2.201-1.785-3.985-3.985-3.985zm-52.713 68.566"/><symbol id="E"><path d="M.439.616c.005.013.005.015.005.02 0 .027-.027.027-.04.027H.382C.366.663.344.663.329.64A1.902 1.902 0 0 1 .24.347H.239A1.097 1.097 0 0 1 .15.585C.122.648.115.663.065.663H.039C.025.663 0 .663 0 .637 0 .633.003.626.005.621L.194.205.18.163C.168.13.151.085.097.085A.122.122 0 0 0 .03.106C.025.109.023.11.02.11.015.11.007.107.007.095c0-.008.006-.077.009-.081C.025.002.079 0 .095 0c.124 0 .173.118.181.142l.163.474z"/></symbol><symbol id="F"><path d="M.44.421C.44.453.433.469.392.469h-.04C.314.469.304.456.304.421V.184C.304.118.269.061.198.061.142.061.136.075.136.128v.293c0 .032-.007.048-.048.048h-.04C.012.469 0 .458 0 .421V.137C0 .03.058 0 .162 0 .189 0 .26 0 .307.085V.059c0-.032.007-.048.048-.048h.037C.43.011.44.024.44.059v.362z"/></symbol><use xlink:href="#r" transform="matrix(9.46447 0 0 -9.46447 105.016 74.473)"/><use xlink:href="#n" transform="matrix(9.46447 0 0 -9.46447 111.386 74.473)"/><use xlink:href="#o" transform="matrix(9.46447 0 0 -9.46447 114.623 74.577)"/><use xlink:href="#l" transform="matrix(9.46447 0 0 -9.46447 120.112 74.577)"/><use xlink:href="#g" transform="matrix(9.46447 0 0 -9.46447 125.138 74.577)"/><use xlink:href="#l" transform="matrix(9.46447 0 0 -9.46447 130.39 74.577)"/><use xlink:href="#b" transform="matrix(9.46447 0 0 -9.46447 135.634 74.473)"/><use xlink:href="#s" transform="matrix(9.46447 0 0 -9.46447 138.123 74.473)"/><use xlink:href="#b" transform="matrix(9.46447 0 0 -9.46447 140.48 74.473)"/><use xlink:href="#i" transform="matrix(9.46447 0 0 -9.46447 142.58 74.577)"/><use xlink:href="#E" transform="matrix(9.46447 0 0 -9.46447 146.196 76.413)"/><use xlink:href="#f" transform="matrix(9.46447 0 0 -9.46447 112.684 85.934)"/><use xlink:href="#d" transform="matrix(9.46447 0 0 -9.46447 117.937 85.934)"/><use xlink:href="#p" transform="matrix(9.46447 0 0 -9.46447 123.048 85.83)"/><use xlink:href="#m" transform="matrix(9.46447 0 0 -9.46447 128.083 85.934)"/><use xlink:href="#b" transform="matrix(9.46447 0 0 -9.46447 132.294 85.83)"/><use xlink:href="#i" transform="matrix(9.46447 0 0 -9.46447 134.395 85.934)"/><use xlink:href="#E" transform="matrix(9.46447 0 0 -9.46447 138.01 87.77)"/><use xlink:href="#q" transform="matrix(9.46447 0 0 -9.46447 110.092 97.188)"/><use xlink:href="#F" transform="matrix(9.46447 0 0 -9.46447 113.556 97.292)"/><use xlink:href="#p" transform="matrix(9.46447 0 0 -9.46447 118.865 97.188)"/><use xlink:href="#t" transform="matrix(9.46447 0 0 -9.46447 123.957 97.292)"/><use xlink:href="#i" transform="matrix(9.46447 0 0 -9.46447 128.424 97.292)"/><use xlink:href="#b" transform="matrix(9.46447 0 0 -9.46447 132.57 97.188)"/><use xlink:href="#o" transform="matrix(9.46447 0 0 -9.46447 134.775 97.292)"/><use xlink:href="#p" transform="matrix(9.46447 0 0 -9.46447 140.255 97.188)"/><use xlink:href="#o" transform="matrix(9.46447 0 0 -9.46447 108.977 108.649)"/><use xlink:href="#q" transform="matrix(9.46447 0 0 -9.46447 114.173 108.545)"/><use xlink:href="#i" transform="matrix(9.46447 0 0 -9.46447 120.41 108.649)"/><use xlink:href="#g" transform="matrix(9.46447 0 0 -9.46447 124.338 108.649)"/><use xlink:href="#n" transform="matrix(9.46447 0 0 -9.46447 129.307 108.545)"/><use xlink:href="#A" transform="matrix(9.46447 0 0 -9.46447 132.487 110.494)"/><use xlink:href="#d" transform="matrix(9.46447 0 0 -9.46447 137.75 108.649)"/><use xlink:href="#i" transform="matrix(9.46447 0 0 -9.46447 142.481 108.649)"/><use xlink:href="#h" transform="matrix(9.46447 0 0 -9.46447 110.992 121.738)"/><use xlink:href="#o" transform="matrix(9.46447 0 0 -9.46447 116.311 120.006)"/><use xlink:href="#m" transform="matrix(9.46447 0 0 -9.46447 121.517 120.006)"/><use xlink:href="#b" transform="matrix(9.46447 0 0 -9.46447 125.728 119.902)"/><use xlink:href="#i" transform="matrix(9.46447 0 0 -9.46447 127.83 120.006)"/><use xlink:href="#b" transform="matrix(9.46447 0 0 -9.46447 131.965 119.902)"/><use xlink:href="#o" transform="matrix(9.46447 0 0 -9.46447 134.17 120.006)"/><use xlink:href="#p" transform="matrix(9.46447 0 0 -9.46447 139.65 119.902)"/><symbol id="G"><path d="M.131.609h.023L.157.61C.17.616.196.597.196.582.196.573.16.431.125.299.098.199.074.104.067.075.056.029.043.017 0 .016V0h.205v.015c-.047 0-.064.009-.064.03 0 .014.017.092.037.166A.13.13 0 0 1 .244.194c.146 0 .3.168.3.327C.544.599.5.646.429.646.364.646.316.614.258.533l.029.1.003.009-.002.003-.002.001-.001.001L.283.646.129.624.131.609M.392.603C.435.601.454.575.454.517A.412.412 0 0 0 .382.303C.34.244.292.213.24.213.212.213.192.228.192.25c0 .034.036.165.065.239.027.068.085.117.135.114z"/></symbol><use xlink:href="#G" transform="matrix(9.46447 0 0 -9.46447 115.287 133.2)" fill="#46b4dc"/><symbol id="H"><path d="M.232.01c0 .003 0 .005-.017.022C.09.158.058.347.058.5c0 .174.038.348.161.473.013.012.013.014.013.017 0 .007-.004.01-.01.01-.01 0-.1-.068-.159-.195A.727.727 0 0 1 0 .5C0 .422.011.301.066.188A.432.432 0 0 1 .222 0c.006 0 .01.003.01.01z"/></symbol><use xlink:href="#H" transform="matrix(9.46447 0 0 -9.46447 121.667 133.626)" fill="#46b4dc"/><symbol id="I"><path d="M.472.024C.456.029.449.033.442.044L.294.272l.101.126a.103.103 0 0 0 .07.039v.024H.297V.437l.02-.002C.34.434.348.428.348.413S.338.381.31.349A.502.502 0 0 1 .274.303L.261.32a.316.316 0 0 0-.058.098c0 .012.014.018.047.019v.024H0V.437C.026.433.032.428.052.398L.18.201C.151.164.124.131.115.117.059.043.039.026.002.024V0h.169v.024C.135.026.121.033.121.048c0 .015.026.057.064.103l.016.02.042-.063C.266.075.276.056.276.044.276.032.262.026.231.024V0h.241v.024z"/></symbol><use xlink:href="#I" transform="matrix(9.46447 0 0 -9.46447 124.515 131.26)" fill="#46b4dc"/><symbol id="J"><path d="M.117.194C.117.26.092.299.053.299A.051.051 0 0 1 0 .246C0 .219.02.193.053.193c.012 0 .025.004.035.013l.005.003C.094.209.095.208.095.194A.242.242 0 0 0 .027.027C.016.016.016.014.016.011.016.004.021 0 .026 0c.011 0 .091.077.091.194z"/></symbol><use xlink:href="#J" transform="matrix(9.46447 0 0 -9.46447 129.947 133.087)" fill="#46b4dc"/><symbol id="K"><path d="M.259.439h-.08l.028.103.001.005c0 .007-.003.01-.008.01C.194.557.191.556.185.548a.354.354 0 0 0-.133-.11C.027.43.02.424.02.413L.021.407h.074L.023.132.017.111A.47.47 0 0 1 0 .038C0 .016.021 0 .048 0 .094 0 .127.028.19.121L.177.128C.128.065.112.049.096.049c-.009 0-.015.008-.015.02l.001.005.088.333h.084l.005.032z"/></symbol><use xlink:href="#K" transform="matrix(9.46447 0 0 -9.46447 132.92 131.364)" fill="#46b4dc"/><symbol id="L"><path d="M.232.5a.729.729 0 0 1-.066.312A.432.432 0 0 1 .01 1C.004 1 0 .996 0 .99 0 .987 0 .985.019.967.117.868.174.709.174.5.174.329.137.153.013.027 0 .015 0 .013 0 .01 0 .004.004 0 .01 0c.01 0 .1.068.159.195C.22.305.232.416.232.5z"/></symbol><use xlink:href="#L" transform="matrix(9.46447 0 0 -9.46447 136.385 133.626)" fill="#46b4dc"/><path d="M183.268 208.48a2.008 2.008 0 1 0-4.015 0 2.008 2.008 0 0 0 4.015 0zm-2.008 0" fill="#009600"/><use xlink:href="#B" transform="matrix(9.46447 0 0 -9.46447 169.275 218.88)" fill="#009600"/><symbol id="M"><path d="M.4.12.385.094C.367.063.355.052.34.052.319.052.298.085.259.181a2.93 2.93 0 0 1-.037.088C.369.4.4.42.447.423v.016H.264V.423H.28C.305.423.319.416.319.405c0-.02-.05-.069-.143-.14L.133.232l.12.457-.005.005A1.414 1.414 0 0 0 .092.667V.651C.14.652.159.645.16.626A.707.707 0 0 0 .129.503L.127.494 0 .011h.075l.048.18.042.032C.181.179.207.118.225.082.257.019.275 0 .304 0c.04 0 .066.025.111.109L.4.12z"/></symbol><use xlink:href="#M" transform="matrix(7.00368 0 0 -7.00368 174.313 218.583)" fill="#009600"/><path stroke-width="1.196" stroke-miterlimit="10" fill="none" stroke="#009600" d="M161.064 208.478h12.843"/><path d="m177.361 208.478-4.736-1.796 1.58 1.796-1.58 1.795z" fill="#009600"/><path stroke-width="1.196" stroke-miterlimit="10" fill="none" stroke="#009600" d="m177.361 208.478-4.736-1.796 1.58 1.796-1.58 1.795z"/><path d="M183.268 262.34a2.008 2.008 0 1 0-4.015 0 2.008 2.008 0 0 0 4.015 0zm-2.008 0" fill="#009600"/><use xlink:href="#D" transform="matrix(9.46447 0 0 -9.46447 169.104 270.867)" fill="#009600"/><use xlink:href="#M" transform="matrix(7.00368 0 0 -7.00368 174.313 272.378)" fill="#009600"/><path stroke-width="1.196" stroke-miterlimit="10" fill="none" stroke="#009600" d="M161.064 262.336h12.843"/><path d="m177.361 262.335-4.736-1.795 1.58 1.795-1.58 1.796z" fill="#009600"/><path stroke-width="1.196" stroke-miterlimit="10" fill="none" stroke="#009600" d="m177.361 262.335-4.736-1.795 1.58 1.795-1.58 1.796z"/><path d="M183.268 100.763a2.008 2.008 0 1 0-4.015 0 2.008 2.008 0 0 0 4.015 0zm-2.008 0" fill="#46b4dc"/><use xlink:href="#G" transform="matrix(9.46447 0 0 -9.46447 156.308 113.787)" fill="#46b4dc"/><use xlink:href="#H" transform="matrix(9.46447 0 0 -9.46447 162.687 114.213)" fill="#46b4dc"/><use xlink:href="#I" transform="matrix(9.46447 0 0 -9.46447 165.536 111.847)" fill="#46b4dc"/><use xlink:href="#J" transform="matrix(9.46447 0 0 -9.46447 170.968 113.674)" fill="#46b4dc"/><use xlink:href="#K" transform="matrix(9.46447 0 0 -9.46447 173.94 111.951)" fill="#46b4dc"/><use xlink:href="#M" transform="matrix(7.00368 0 0 -7.00368 176.32 113.49)" fill="#46b4dc"/><use xlink:href="#L" transform="matrix(9.46447 0 0 -9.46447 180.463 114.213)" fill="#46b4dc"/><path stroke-width="1.196" stroke-miterlimit="10" fill="none" stroke="#46b4dc" d="M161.064 100.763h12.843"/><path d="m177.361 100.763-4.736-1.796 1.58 1.796-1.58 1.795z" fill="#46b4dc"/><path stroke-width="1.196" stroke-miterlimit="10" fill="none" stroke="#46b4dc" d="m177.361 100.763-4.736-1.796 1.58 1.796-1.58 1.795z"/><path d="M260.7 100.762a5.386 5.386 0 1 0-10.77 0 5.386 5.386 0 0 0 10.77 0zm-5.385 0" fill="#fff"/><path stroke-width=".996" stroke-miterlimit="10" fill="none" stroke="#46b4dc" d="M260.7 100.762a5.386 5.386 0 1 0-10.77 0 5.386 5.386 0 0 0 10.77 0zM250.876 100.762h8.878M255.315 105.202v-8.88"/><symbol id="N"><path d="M.147.311H.41c.031 0 .048.007.048.047C.458.395.445.405.41.405H.147V.59h.049L.431.587c.035 0 .058 0 .058.048v.008c0 .032-.007.048-.048.048H.048C.012.691 0 .68 0 .643V.048C0 .012.011 0 .048 0h.408c.038 0 .048.013.048.048v.014C.504.11.481.11.448.11L.293.108.147.106v.205z"/></symbol><symbol id="O"><path d="M.147.299h.232c.031 0 .048.007.048.047 0 .037-.013.047-.048.047H.147V.59H.19L.416.587c.034 0 .057 0 .057.048v.008c0 .032-.007.048-.048.048H.048C.012.691 0 .68 0 .643V.048C0 .012.011 0 .048 0h.051c.038 0 .048.013.048.048v.251z"/></symbol><use xlink:href="#N" transform="matrix(8.51808 0 0 -8.51808 183.937 93.467)" fill="#46b4dc"/><use xlink:href="#j" transform="matrix(8.51808 0 0 -8.51808 188.852 93.467)" fill="#46b4dc"/><use xlink:href="#o" transform="matrix(8.51808 0 0 -8.51808 193.154 93.56)" fill="#46b4dc"/><use xlink:href="#s" transform="matrix(8.51808 0 0 -8.51808 198.094 93.467)" fill="#46b4dc"/><use xlink:href="#F" transform="matrix(8.51808 0 0 -8.51808 200.266 93.56)" fill="#46b4dc"/><use xlink:href="#i" transform="matrix(8.51808 0 0 -8.51808 204.704 93.56)" fill="#46b4dc"/><use xlink:href="#b" transform="matrix(8.51808 0 0 -8.51808 208.435 93.467)" fill="#46b4dc"/><use xlink:href="#o" transform="matrix(8.51808 0 0 -8.51808 210.42 93.56)" fill="#46b4dc"/><use xlink:href="#p" transform="matrix(8.51808 0 0 -8.51808 215.352 93.467)" fill="#46b4dc"/><use xlink:href="#w" transform="matrix(8.51808 0 0 -8.51808 223.478 95.597)" fill="#46b4dc"/><use xlink:href="#O" transform="matrix(8.51808 0 0 -8.51808 227.166 93.467)" fill="#46b4dc"/><use xlink:href="#r" transform="matrix(8.51808 0 0 -8.51808 232.37 93.467)" fill="#46b4dc"/><use xlink:href="#N" transform="matrix(8.51808 0 0 -8.51808 238.36 93.467)" fill="#46b4dc"/><use xlink:href="#z" transform="matrix(8.51808 0 0 -8.51808 243.572 95.597)" fill="#46b4dc"/><path stroke-width="1.196" stroke-miterlimit="10" fill="none" stroke="#46b4dc" d="M183.458 100.763h61.316"/><path d="m248.228 100.763-4.736-1.796 1.58 1.796-1.58 1.795z" fill="#46b4dc"/><path stroke-width="1.196" stroke-miterlimit="10" fill="none" stroke="#46b4dc" d="m248.228 100.763-4.736-1.796 1.58 1.796-1.58 1.795z"/><path stroke-width="1.196" stroke-miterlimit="10" fill="none" stroke="red" d="M181.26 206.281v-51.662h74.056v-43.314"/><path d="m255.316 107.851-1.795 4.736 1.795-1.58 1.796 1.58z" fill="red"/><path stroke-width="1.196" stroke-miterlimit="10" fill="none" stroke="red" d="m255.316 107.851-1.795 4.736 1.795-1.58 1.796 1.58z"/><use xlink:href="#k" transform="matrix(8.51808 0 0 -8.51808 178.554 150.202)" fill="red"/><use xlink:href="#l" transform="matrix(8.51808 0 0 -8.51808 185.317 150.109)" fill="red"/><use xlink:href="#m" transform="matrix(8.51808 0 0 -8.51808 189.84 150.109)" fill="red"/><use xlink:href="#d" transform="matrix(8.51808 0 0 -8.51808 193.435 150.109)" fill="red"/><use xlink:href="#n" transform="matrix(8.51808 0 0 -8.51808 198.043 150.015)" fill="red"/><use xlink:href="#j" transform="matrix(8.51808 0 0 -8.51808 200.914 150.015)" fill="red"/><use xlink:href="#g" transform="matrix(8.51808 0 0 -8.51808 205.215 150.109)" fill="red"/><use xlink:href="#i" transform="matrix(8.51808 0 0 -8.51808 209.594 150.109)" fill="red"/><use xlink:href="#b" transform="matrix(8.51808 0 0 -8.51808 213.324 150.015)" fill="red"/><use xlink:href="#o" transform="matrix(8.51808 0 0 -8.51808 215.31 150.109)" fill="red"/><use xlink:href="#p" transform="matrix(8.51808 0 0 -8.51808 220.241 150.015)" fill="red"/><use xlink:href="#F" transform="matrix(8.51808 0 0 -8.51808 228.146 150.109)" fill="red"/><use xlink:href="#h" transform="matrix(8.51808 0 0 -8.51808 232.933 151.668)" fill="red"/><use xlink:href="#f" transform="matrix(8.51808 0 0 -8.51808 237.763 150.109)" fill="red"/><use xlink:href="#g" transform="matrix(8.51808 0 0 -8.51808 242.49 150.109)" fill="red"/><use xlink:href="#i" transform="matrix(8.51808 0 0 -8.51808 246.869 150.109)" fill="red"/><use xlink:href="#d" transform="matrix(8.51808 0 0 -8.51808 250.404 150.109)" fill="red"/><path d="M260.7 208.475a5.386 5.386 0 1 0-10.77 0 5.386 5.386 0 0 0 10.77 0zm-5.385 0" fill="#fff"/><path stroke-width=".996" stroke-miterlimit="10" fill="none" stroke="#009600" d="M260.7 208.475a5.386 5.386 0 1 0-10.77 0 5.386 5.386 0 0 0 10.77 0zM250.876 208.475h8.878M255.315 212.914v-8.878"/><path stroke-width="1.196" stroke-miterlimit="10" fill="none" stroke="#009600" d="M183.458 208.478h61.316"/><path d="m248.228 208.478-4.736-1.796 1.58 1.796-1.58 1.796z" fill="#009600"/><path stroke-width="1.196" stroke-miterlimit="10" fill="none" stroke="#009600" d="m248.228 208.478-4.736-1.796 1.58 1.796-1.58 1.796zM183.458 262.336h71.858V219.02"/><path d="m255.316 215.566-1.795 4.736 1.795-1.58 1.796 1.58z" fill="#009600"/><path stroke-width="1.196" stroke-miterlimit="10" fill="none" stroke="#009600" d="m255.316 215.566-1.795 4.736 1.795-1.58 1.796 1.58z"/><symbol id="P"><path d="M.131.115V.21C.131.236.13.237.104.237H.027C.001.237 0 .236 0 .21V.133C0 .107.001.106.034.106l-.03-.08A.05.05 0 0 1 .001.013C.001 0 .011 0 .027 0h.012c.02 0 .021.001.029.013l.063.102z"/></symbol><use xlink:href="#u" transform="matrix(8.51808 0 0 -8.51808 176.172 230.992)" fill="#009600"/><use xlink:href="#d" transform="matrix(8.51808 0 0 -8.51808 181.224 230.899)" fill="#009600"/><use xlink:href="#g" transform="matrix(8.51808 0 0 -8.51808 185.576 230.899)" fill="#009600"/><use xlink:href="#n" transform="matrix(8.51808 0 0 -8.51808 190.04 230.805)" fill="#009600"/><use xlink:href="#t" transform="matrix(8.51808 0 0 -8.51808 193.004 230.899)" fill="#009600"/><use xlink:href="#v" transform="matrix(8.51808 0 0 -8.51808 197.365 230.805)" fill="#009600"/><use xlink:href="#d" transform="matrix(8.51808 0 0 -8.51808 201.897 230.899)" fill="#009600"/><use xlink:href="#n" transform="matrix(8.51808 0 0 -8.51808 206.514 230.805)" fill="#009600"/><use xlink:href="#m" transform="matrix(8.51808 0 0 -8.51808 209.427 230.899)" fill="#009600"/><use xlink:href="#P" transform="matrix(8.51808 0 0 -8.51808 213.49 226.912)" fill="#009600"/><use xlink:href="#f" transform="matrix(8.51808 0 0 -8.51808 218.797 230.899)" fill="#009600"/><use xlink:href="#E" transform="matrix(8.51808 0 0 -8.51808 223.507 232.551)" fill="#009600"/><use xlink:href="#p" transform="matrix(8.51808 0 0 -8.51808 228.03 230.805)" fill="#009600"/><use xlink:href="#g" transform="matrix(8.51808 0 0 -8.51808 232.562 230.899)" fill="#009600"/><use xlink:href="#c" transform="matrix(8.51808 0 0 -8.51808 237.281 230.805)" fill="#009600"/><use xlink:href="#b" transform="matrix(8.51808 0 0 -8.51808 244.615 230.805)" fill="#009600"/><use xlink:href="#t" transform="matrix(8.51808 0 0 -8.51808 246.651 230.899)" fill="#009600"/><use xlink:href="#m" transform="matrix(8.51808 0 0 -8.51808 250.765 230.899)" fill="#009600"/><path d="M317.915 100.763a2.008 2.008 0 1 0-4.016 0 2.008 2.008 0 0 0 4.016 0zm-2.008 0" fill="#46b4dc"/><use xlink:href="#G" transform="matrix(9.46447 0 0 -9.46447 276.328 113.787)" fill="#46b4dc"/><use xlink:href="#H" transform="matrix(9.46447 0 0 -9.46447 282.707 114.213)" fill="#46b4dc"/><use xlink:href="#I" transform="matrix(9.46447 0 0 -9.46447 285.555 111.847)" fill="#46b4dc"/><use xlink:href="#J" transform="matrix(9.46447 0 0 -9.46447 290.988 113.674)" fill="#46b4dc"/><use xlink:href="#K" transform="matrix(9.46447 0 0 -9.46447 293.96 111.951)" fill="#46b4dc"/><use xlink:href="#M" transform="matrix(7.00368 0 0 -7.00368 296.34 113.49)" fill="#46b4dc"/><symbol id="Q"><path d="M.353.313h.279c.014 0 .033 0 .033.02s-.019.02-.033.02H.353v.28c0 .014 0 .033-.02.033S.313.647.313.633v-.28h-.28C.019.353 0 .353 0 .333s.019-.02.033-.02h.28v-.28c0-.014 0-.033.02-.033s.02.019.02.033v.28z"/></symbol><use xlink:href="#Q" transform="matrix(7.00368 0 0 -7.00368 299.862 113.995)" fill="#46b4dc"/><symbol id="R"><path d="M.18.676 0 .585V.571l.027.011a.144.144 0 0 0 .045.011c.021 0 .03-.015.03-.047V.093C.102.06.094.037.078.028.063.019.049.016.007.015V0h.276v.015C.204.016.188.026.188.074v.6L.18.676z"/></symbol><use xlink:href="#R" transform="matrix(7.00368 0 0 -7.00368 305.689 113.414)" fill="#46b4dc"/><use xlink:href="#L" transform="matrix(9.46447 0 0 -9.46447 309.427 114.213)" fill="#46b4dc"/><path stroke-width="1.196" stroke-miterlimit="10" fill="none" stroke="#46b4dc" d="M260.702 100.763h47.849"/><path d="m312.005 100.763-4.736-1.796 1.58 1.796-1.58 1.795z" fill="#46b4dc"/><path stroke-width="1.196" stroke-miterlimit="10" fill="none" stroke="#46b4dc" d="m312.005 100.763-4.736-1.796 1.58 1.796-1.58 1.795z"/><path d="M317.915 208.48a2.008 2.008 0 1 0-4.016 0 2.008 2.008 0 0 0 4.016 0zm-2.008 0" fill="#009600"/><use xlink:href="#B" transform="matrix(9.46447 0 0 -9.46447 294.973 218.88)" fill="#009600"/><use xlink:href="#M" transform="matrix(7.00368 0 0 -7.00368 300.011 218.583)" fill="#009600"/><use xlink:href="#Q" transform="matrix(7.00368 0 0 -7.00368 303.534 219.087)" fill="#009600"/><use xlink:href="#R" transform="matrix(7.00368 0 0 -7.00368 309.361 218.506)" fill="#009600"/><path stroke-width="1.196" stroke-miterlimit="10" fill="none" stroke="#009600" d="M260.702 208.478h47.849"/><path d="m312.005 208.478-4.736-1.796 1.58 1.796-1.58 1.795z" fill="#009600"/><path stroke-width="1.196" stroke-miterlimit="10" fill="none" stroke="#009600" d="m312.005 208.478-4.736-1.796 1.58 1.796-1.58 1.795z"/><path d="M317.915 262.34a2.008 2.008 0 1 0-4.016 0 2.008 2.008 0 0 0 4.016 0zm-2.008 0" fill="#009600"/><use xlink:href="#D" transform="matrix(9.46447 0 0 -9.46447 294.802 270.867)" fill="#009600"/><use xlink:href="#M" transform="matrix(7.00368 0 0 -7.00368 300.011 272.378)" fill="#009600"/><use xlink:href="#Q" transform="matrix(7.00368 0 0 -7.00368 303.534 272.882)" fill="#009600"/><use xlink:href="#R" transform="matrix(7.00368 0 0 -7.00368 309.361 272.3)" fill="#009600"/><path stroke-width="1.196" stroke-miterlimit="10" fill="none" stroke="red" d="M315.905 102.96v51.662c-14.873 0-26.93 12.056-26.93 26.929v80.788h21.773"/><path d="m314.202 262.34-4.736-1.796 1.58 1.795-1.58 1.796z" fill="red"/><path stroke-width="1.196" stroke-miterlimit="10" fill="none" stroke="red" d="m314.202 262.34-4.736-1.796 1.58 1.795-1.58 1.796z"/><symbol id="S"><path d="M.395.382C.405.395.407.4.407.416c0 .042-.031.042-.048.042H.063C.05.458.015.458.015.42c0-.037.032-.037.059-.037l.145.002h.037L.012.076C.002.063 0 .058 0 .042 0 0 .031 0 .048 0h.314C.375 0 .41 0 .41.037.41.075.379.075.35.075L.197.073H.151l.244.309z"/></symbol><use xlink:href="#k" transform="matrix(8.51808 0 0 -8.51808 297.988 170.402)" fill="red"/><use xlink:href="#h" transform="matrix(8.51808 0 0 -8.51808 304.751 171.868)" fill="red"/><use xlink:href="#i" transform="matrix(8.51808 0 0 -8.51808 309.18 170.309)" fill="red"/><use xlink:href="#b" transform="matrix(8.51808 0 0 -8.51808 312.911 170.215)" fill="red"/><use xlink:href="#c" transform="matrix(8.51808 0 0 -8.51808 315.143 170.215)" fill="red"/><use xlink:href="#b" transform="matrix(8.51808 0 0 -8.51808 322.477 170.215)" fill="red"/><use xlink:href="#S" transform="matrix(8.51808 0 0 -8.51808 324.462 170.215)" fill="red"/><use xlink:href="#g" transform="matrix(8.51808 0 0 -8.51808 328.516 170.309)" fill="red"/><use xlink:href="#i" transform="matrix(8.51808 0 0 -8.51808 332.895 170.309)" fill="red"/><use xlink:href="#b" transform="matrix(8.51808 0 0 -8.51808 336.626 170.215)" fill="red"/><use xlink:href="#o" transform="matrix(8.51808 0 0 -8.51808 338.61 170.309)" fill="red"/><use xlink:href="#p" transform="matrix(8.51808 0 0 -8.51808 343.542 170.215)" fill="red"/><path stroke-width="1.196" stroke-miterlimit="10" fill="none" stroke="#46b4dc" d="M318.102 100.763h46.505"/><path d="m368.06 100.763-4.735-1.796 1.58 1.796-1.58 1.795z" fill="#46b4dc"/><path stroke-width="1.196" stroke-miterlimit="10" fill="none" stroke="#46b4dc" d="m368.06 100.763-4.735-1.796 1.58 1.796-1.58 1.795z"/><path stroke-width="1.196" stroke-miterlimit="10" fill="none" stroke="#009600" d="M318.102 208.478h46.505"/><path d="m368.06 208.478-4.735-1.796 1.58 1.796-1.58 1.796z" fill="#009600"/><path stroke-width="1.196" stroke-miterlimit="10" fill="none" stroke="#009600" d="m368.06 208.478-4.735-1.796 1.58 1.796-1.58 1.796zM318.102 262.335h46.505"/><path d="m368.06 262.336-4.735-1.796 1.58 1.796-1.58 1.795z" fill="#009600"/><path stroke-width="1.196" stroke-miterlimit="10" fill="none" stroke="#009600" d="m368.06 262.336-4.735-1.796 1.58 1.796-1.58 1.795z"/><path stroke-width=".797" stroke-miterlimit="10" fill="none" stroke="red" d="M.396 297.972V5.38A4.981 4.981 0 0 1 5.378.398h514.15a4.981 4.981 0 0 1 4.98 4.981v292.593a4.981 4.981 0 0 1-4.98 4.982H5.378a4.981 4.981 0 0 1-4.982-4.982zM524.51.398"/></svg>