<svg xmlns="http://www.w3.org/2000/svg" xmlns:xlink="http://www.w3.org/1999/xlink" xmlns:inkscape="http://www.inkscape.org/namespaces/inkscape" version="1.1" width="530.823" height="304.936" viewBox="0 0 530.823 304.936">
<path transform="matrix(1,0,0,-1,200.645,74.02301)" stroke-width=".79701" stroke-linecap="butt" stroke-miterlimit="10" stroke-linejoin="miter" fill="none" stroke="#000000" d="M-161.5763-107.71751H265.18348"/>
<path transform="matrix(1,0,0,-1,463.3634,181.74051)" d="M5.44046 0 1.28699 1.5706 2.66432 0 1.28699-1.5706Z"/>
<path transform="matrix(1,0,0,-1,463.3634,181.74051)" stroke-width=".79701" stroke-linecap="butt" stroke-miterlimit="10" stroke-linejoin="miter" fill="none" stroke="#000000" d="M5.44046 0 1.28699 1.5706 2.66432 0 1.28699-1.5706Z"/>
<text xml:space="preserve" transform="matrix(.95 0 -0 .95 23.673432 298.97337)" font-size="11.9552" font-family="CMSSBX10" font-weight="bold"><tspan y="-119.253" x="473.468 482.23115 485.29167 495.65684">Time</tspan></text>
<text fill="#b30000" xml:space="preserve" transform="matrix(.95 0 -0 .95 2.1597596 291.82655)" font-size="17.2154" font-family="CMSSBX10" font-weight="bold"><tspan y="-262.189" x="43.195 55.81389 65.471729 74.50981 84.16765 91.12267 95.529819 104.13751 119.25264 132.92166 142.5795 149.84439 158.64147 165.0456 173.65329 182.69138 189.6464 194.05353 203.522 219.48069 225.26506 234.21707 246.92205 259.02449 265.4286 274.89707 284.5549 293.593 303.25083 307.65797 312.0651 316.47224 323.73713 330.69215 335.09928 349.83567 360.35429 369.15135 377.65574 384.05989 392.4782 408.4541 415.8223 432.65898 441.69706 448.65208 458.3099 464.62797 474.2858 483.32389 490.58879 499.38584 509.04368">AdaptiveObservationforProbabilisticSearch(Math-based)</tspan></text>
<path transform="matrix(.95,0,0,-.95,43.195009,49.22029)" stroke-width=".717" stroke-linecap="butt" stroke-miterlimit="10" stroke-linejoin="miter" fill="none" stroke="#b30000" d="M0 0H473.207"/>
<text fill="#009600" xml:space="preserve" transform="matrix(.95 0 -0 .95 1.5238972 301.75303)" font-size="17.2154" font-family="CMSSBX10" font-weight="bold"><tspan y="-63.66" x="30.478 40.996614 49.793684 58.29809 64.71944 73.13777 82.79561 91.59268 97.99681">Searchers</tspan></text>
<text fill="#46b4dc" xml:space="preserve" transform="matrix(.95 0 -0 .95 2.0842095 296.28773)" font-size="17.2154" font-family="CMSSBX10" font-weight="bold"><tspan y="-172.966" x="41.684 52.71907 61.240697 67.64482 77.11329 85.91036">Target</tspan></text>
<path transform="matrix(1,0,0,-1,200.645,74.02301)" d="M-42.013-124.54837H-92.63383C-94.83478-124.54837-96.61894-126.33253-96.61894-128.53348V-140.76029C-96.61894-142.96123-94.83478-144.74539-92.63383-144.74539H-42.013C-39.81206-144.74539-38.0279-142.96123-38.0279-140.76029V-128.53348C-38.0279-126.33253-39.81206-124.54837-42.013-124.54837ZM-96.61894-144.74539" fill="#e6f4e6"/>
<path transform="matrix(1,0,0,-1,200.645,74.02301)" stroke-width=".79701" stroke-linecap="butt" stroke-miterlimit="10" stroke-linejoin="miter" fill="none" stroke="#000000" d="M-42.013-124.54837H-92.63383C-94.83478-124.54837-96.61894-126.33253-96.61894-128.53348V-140.76029C-96.61894-142.96123-94.83478-144.74539-92.63383-144.74539H-42.013C-39.81206-144.74539-38.0279-142.96123-38.0279-140.76029V-128.53348C-38.0279-126.33253-39.81206-124.54837-42.013-124.54837ZM-96.61894-144.74539"/>
<text xml:space="preserve" transform="matrix(.95 0 -0 .95 5.3196566 300.26203)" font-size="11.9552" font-family="CMSSBX10" font-weight="bold"><tspan y="-93.48" x="107.285 115.31889 121.89426 126.939357 129.99988 134.82978 137.8903 144.46567">Position</tspan></text>
<text fill="#009600" xml:space="preserve" transform="matrix(.95 0 -0 .95 5.3196566 300.26203)" font-size="11.9552" font-family="NimbusRomNo9L" font-weight="bold"><tspan y="-93.48" x="155.547">q</tspan></text>
<path transform="matrix(1,0,0,-1,200.645,74.02301)" d="M-42.013-178.40715H-92.63383C-94.83478-178.40715-96.61894-180.19133-96.61894-182.39226V-194.61907C-96.61894-196.82-94.83478-198.60417-92.63383-198.60417H-42.013C-39.81206-198.60417-38.0279-196.82-38.0279-194.61907V-182.39226C-38.0279-180.19133-39.81206-178.40715-42.013-178.40715ZM-96.61894-198.60417" fill="#e6f4e6"/>
<path transform="matrix(1,0,0,-1,200.645,74.02301)" stroke-width=".79701" stroke-linecap="butt" stroke-miterlimit="10" stroke-linejoin="miter" fill="none" stroke="#000000" d="M-42.013-178.40715H-92.63383C-94.83478-178.40715-96.61894-180.19133-96.61894-182.39226V-194.61907C-96.61894-196.82-94.83478-198.60417-92.63383-198.60417H-42.013C-39.81206-198.60417-38.0279-196.82-38.0279-194.61907V-182.39226C-38.0279-180.19133-39.81206-178.40715-42.013-178.40715ZM-96.61894-198.60417"/>
<text xml:space="preserve" transform="matrix(.95 0 -0 .95 5.3196566 303.00874)" font-size="11.9552" font-family="CMSSBX10" font-weight="bold"><tspan y="-38.546" x="106.405 114.8095 121.384868 128.09174 132.92163 137.36898 143.94434 147.00487">Controls</tspan></text>
<text fill="#009600" xml:space="preserve" transform="matrix(.95 0 -0 .95 5.3196566 303.00874)" font-size="11.9552" font-family="NimbusRomNo9L" font-weight="bold"><tspan y="-38.546" x="156.427">u</tspan></text>
<path transform="matrix(1,0,0,-1,200.645,74.02301)" d="M-41.53978 14.39934H-93.10707C-95.30801 14.39934-97.09218 12.61517-97.09218 10.41423V-64.27301C-97.09218-66.47395-95.30801-68.25812-93.10707-68.25812H-41.53978C-39.33884-68.25812-37.55467-66.47395-37.55467-64.27301V10.41423C-37.55467 12.61517-39.33884 14.39934-41.53978 14.39934ZM-97.09218-68.25812" fill="#ecf8fc"/>
<path transform="matrix(1,0,0,-1,200.645,74.02301)" stroke-width=".79701" stroke-linecap="butt" stroke-miterlimit="10" stroke-linejoin="miter" fill="none" stroke="#000000" d="M-41.53978 14.39934H-93.10707C-95.30801 14.39934-97.09218 12.61517-97.09218 10.41423V-64.27301C-97.09218-66.47395-95.30801-68.25812-93.10707-68.25812H-41.53978C-39.33884-68.25812-37.55467-66.47395-37.55467-64.27301V10.41423C-37.55467 12.61517-39.33884 14.39934-41.53978 14.39934ZM-97.09218-68.25812"/>
<text xml:space="preserve" transform="matrix(.95 0 -0 .95 5.3196566 293.2067)" font-size="11.9552" font-family="CMSSBX10" font-weight="bold"><tspan y="-234.586" x="106.393 114.7975 119.244838 125.8202 132.52707 138.80355 145.5104 148.57094 151.63147 154.692 159.15129">Probability</tspan><tspan y="-220.638" x="115.70599 122.412868 128.52198 135.22884 140.27393 143.33446 147.79375">density</tspan><tspan y="-206.69" x="112.51499 116.53194 123.23881 129.94568 135.79178 140.62168 143.6822 150.25757">function</tspan><tspan y="-192.743" x="110.89599 117.47135 125.875858 130.70575 136.61162 141.05896 147.63433 153.74344">oftarget</tspan><tspan y="-178.795" x="113.28199 120.359477 126.93484 131.97994 135.02852 139.85842 142.91895 149.49431">position</tspan></text>
<text fill="#46b4dc" xml:space="preserve" transform="matrix(.95 0 -0 .95 5.3196566 293.2067)" font-size="11.9552" font-family="NimbusRomNo9L" font-style="italic"><tspan y="-164.847" x="120.33299">p</tspan></text>
<text fill="#46b4dc" xml:space="preserve" transform="matrix(.95 0 -0 .95 5.3196566 293.2067)" font-size="11.9552" font-family="CMR10"><tspan y="-164.847" x="126.31099">(</tspan></text>
<text fill="#46b4dc" xml:space="preserve" transform="matrix(.95 0 -0 .95 5.3196566 293.2067)" font-size="11.9552" font-family="NimbusRomNo9L" font-weight="bold"><tspan y="-164.847" x="130.94899">x</tspan></text>
<text fill="#46b4dc" xml:space="preserve" transform="matrix(.95 0 -0 .95 5.3196566 293.2067)" font-size="11.9552" font-family="CMMI10" font-style="italic"><tspan y="-164.847" x="136.92699">,</tspan></text>
<text fill="#46b4dc" xml:space="preserve" transform="matrix(.95 0 -0 .95 5.3196566 293.2067)" font-size="11.9552" font-family="NimbusRomNo9L" font-style="italic"><tspan y="-164.847" x="141.26799">t</tspan></text>
<text fill="#46b4dc" xml:space="preserve" transform="matrix(.95 0 -0 .95 5.3196566 293.2067)" font-size="11.9552" font-family="CMR10"><tspan y="-164.847" x="145.40399">)</tspan></text>
<path transform="matrix(1,0,0,-1,200.645,74.02301)" d="M2.00775-134.6469C2.00775-133.53803 1.10886-132.63915 0-132.63915-1.10886-132.63915-2.00775-133.53803-2.00775-134.6469-2.00775-135.75576-1.10886-136.65465 0-136.65465 1.10886-136.65465 2.00775-135.75576 2.00775-134.6469ZM0-134.6469" fill="#009600"/>
<text fill="#009600" xml:space="preserve" transform="matrix(.95 0 -0 .95 9.329346 300.59037)" font-size="11.9552" font-family="NimbusRomNo9L" font-weight="bold"><tspan y="-86.913" x="186.587">q</tspan></text>
<text fill="#009600" xml:space="preserve" transform="matrix(.95 0 -0 .95 9.329346 300.59037)" font-size="8.9664" font-family="NimbusRomNo9L" font-style="italic"><tspan y="-84.852008" x="193.23401">k</tspan></text>
<path transform="matrix(1,0,0,-1,200.645,74.02301)" stroke-width="1.19553" stroke-linecap="butt" stroke-miterlimit="10" stroke-linejoin="miter" fill="none" stroke="#009600" d="M-26.92937-134.64398-7.3537-134.6438"/>
<path transform="matrix(1,0,0,-1,190.07936,208.66681)" d="M6.66628 0 1.93044 1.79556 3.5108 0 1.93044-1.79556Z" fill="#009600"/>
<path transform="matrix(1,0,0,-1,190.07936,208.66681)" stroke-width="1.19553" stroke-linecap="butt" stroke-miterlimit="10" stroke-linejoin="miter" fill="none" stroke="#009600" d="M6.66628 0 1.93044 1.79556 3.5108 0 1.93044-1.79556Z"/>
<path transform="matrix(1,0,0,-1,200.645,74.02301)" d="M2.00775-188.50566C2.00775-187.3968 1.10886-186.49791 0-186.49791-1.10886-186.49791-2.00775-187.3968-2.00775-188.50566-2.00775-189.61454-1.10886-190.51343 0-190.51343 1.10886-190.51343 2.00775-189.61454 2.00775-188.50566ZM0-188.50566" fill="#009600"/>
<text fill="#009600" xml:space="preserve" transform="matrix(.95 0 -0 .95 9.329346 303.27955)" font-size="11.9552" font-family="NimbusRomNo9L" font-weight="bold"><tspan y="-33.13" x="186.587">u</tspan></text>
<text fill="#009600" xml:space="preserve" transform="matrix(.95 0 -0 .95 9.329346 303.27955)" font-size="8.9664" font-family="NimbusRomNo9L" font-style="italic"><tspan y="-31.069" x="193.23401">k</tspan></text>
<path transform="matrix(1,0,0,-1,200.645,74.02301)" stroke-width="1.19553" stroke-linecap="butt" stroke-miterlimit="10" stroke-linejoin="miter" fill="none" stroke="#009600" d="M-26.92937-188.50159-7.3537-188.50131"/>
<path transform="matrix(1,0,0,-1,190.07936,262.52433)" d="M6.66628 0 1.93044 1.79556 3.5108 0 1.93044-1.79556Z" fill="#009600"/>
<path transform="matrix(1,0,0,-1,190.07936,262.52433)" stroke-width="1.19553" stroke-linecap="butt" stroke-miterlimit="10" stroke-linejoin="miter" fill="none" stroke="#009600" d="M6.66628 0 1.93044 1.79556 3.5108 0 1.93044-1.79556Z"/>
<path transform="matrix(1,0,0,-1,200.645,74.02301)" d="M2.00775-26.92937C2.00775-25.82051 1.10886-24.92162 0-24.92162-1.10886-24.92162-2.00775-25.82051-2.00775-26.92937-2.00775-28.03824-1.10886-28.93712 0-28.93712 1.10886-28.93712 2.00775-28.03824 2.00775-26.92937ZM0-26.92937" fill="#46b4dc"/>
<text fill="#46b4dc" xml:space="preserve" transform="matrix(.95 0 -0 .95 8.51387 295.362)" font-size="11.9552" font-family="NimbusRomNo9L" font-style="italic"><tspan y="-191.48" x="171.173">p</tspan></text>
<text fill="#46b4dc" xml:space="preserve" transform="matrix(.95 0 -0 .95 8.51387 295.362)" font-size="11.9552" font-family="CMR10"><tspan y="-191.48" x="177.151">(</tspan></text>
<text fill="#46b4dc" xml:space="preserve" transform="matrix(.95 0 -0 .95 8.51387 295.362)" font-size="11.9552" font-family="NimbusRomNo9L" font-weight="bold"><tspan y="-191.48" x="181.789">x</tspan></text>
<text fill="#46b4dc" xml:space="preserve" transform="matrix(.95 0 -0 .95 8.51387 295.362)" font-size="11.9552" font-family="CMMI10" font-style="italic"><tspan y="-191.48" x="187.767">,</tspan></text>
<text fill="#46b4dc" xml:space="preserve" transform="matrix(.95 0 -0 .95 8.51387 295.362)" font-size="11.9552" font-family="NimbusRomNo9L" font-style="italic"><tspan y="-191.48" x="192.108">t</tspan></text>
<text fill="#46b4dc" xml:space="preserve" transform="matrix(.95 0 -0 .95 8.51387 295.362)" font-size="8.9664" font-family="NimbusRomNo9L" font-style="italic"><tspan y="-189.42" x="195.431">k</tspan></text>
<text fill="#46b4dc" xml:space="preserve" transform="matrix(.95 0 -0 .95 8.51387 295.362)" font-size="11.9552" font-family="CMR10"><tspan y="-191.48" x="200.063">)</tspan></text>
<path transform="matrix(1,0,0,-1,200.645,74.02301)" stroke-width="1.19553" stroke-linecap="butt" stroke-miterlimit="10" stroke-linejoin="miter" fill="none" stroke="#46b4dc" d="M-26.92937-26.92877H-7.35373"/>
<path transform="matrix(1,0,0,-1,190.07933,100.95178)" d="M6.66628 0 1.93044 1.79556 3.5108 0 1.93044-1.79556Z" fill="#46b4dc"/>
<path transform="matrix(1,0,0,-1,190.07933,100.95178)" stroke-width="1.19553" stroke-linecap="butt" stroke-miterlimit="10" stroke-linejoin="miter" fill="none" stroke="#46b4dc" d="M6.66628 0 1.93044 1.79556 3.5108 0 1.93044-1.79556Z"/>
<path transform="matrix(1,0,0,-1,200.645,74.02301)" d="M99.63657-26.92818C99.63657-23.95366 97.22531-21.5424 94.25078-21.5424 91.27626-21.5424 88.86499-23.95366 88.86499-26.92818 88.86499-29.90271 91.27626-32.31396 94.25078-32.31396 97.22531-32.31396 99.63657-29.90271 99.63657-26.92818ZM94.25078-26.92818" fill="#ffffff"/>
<path transform="matrix(1,0,0,-1,200.645,74.02301)" stroke-width=".99628" stroke-linecap="butt" stroke-miterlimit="10" stroke-linejoin="miter" fill="none" stroke="#46b4dc" d="M99.63657-26.92818C99.63657-23.95366 97.22531-21.5424 94.25078-21.5424 91.27626-21.5424 88.86499-23.95366 88.86499-26.92818 88.86499-29.90271 91.27626-32.31396 94.25078-32.31396 97.22531-32.31396 99.63657-29.90271 99.63657-26.92818ZM94.25078-26.92818"/>
<path transform="matrix(1,0,0,-1,200.645,74.02301)" stroke-width=".99628" stroke-linecap="butt" stroke-miterlimit="10" stroke-linejoin="miter" fill="none" stroke="#46b4dc" d="M89.81145-26.92818H98.69011"/>
<path transform="matrix(1,0,0,-1,200.645,74.02301)" stroke-width=".99628" stroke-linecap="butt" stroke-miterlimit="10" stroke-linejoin="miter" fill="none" stroke="#46b4dc" d="M94.25078-31.36751V-22.48886"/>
<text fill="#46b4dc" xml:space="preserve" transform="matrix(.95 0 -0 .95 10.136612 294.40754)" font-size="11.9552" font-family="CMSSBX10" font-weight="bold"><tspan y="-210.57" x="202.732 210.40723 216.38483 222.96019 226.02072 232.72759 237.55748 240.61801 247.19338 258.2878 263.40464 270.70927 279.11378 286.77705">Evolution(FPE)</tspan></text>
<path transform="matrix(1,0,0,-1,200.645,74.02301)" stroke-width="1.19553" stroke-linecap="butt" stroke-miterlimit="10" stroke-linejoin="miter" fill="none" stroke="#46b4dc" d="M2.19696-26.92877H83.71025"/>
<path transform="matrix(1,0,0,-1,281.1433,100.95178)" d="M6.66628 0 1.93044 1.79556 3.5108 0 1.93044-1.79556Z" fill="#46b4dc"/>
<path transform="matrix(1,0,0,-1,281.1433,100.95178)" stroke-width="1.19553" stroke-linecap="butt" stroke-miterlimit="10" stroke-linejoin="miter" fill="none" stroke="#46b4dc" d="M6.66628 0 1.93044 1.79556 3.5108 0 1.93044-1.79556Z"/>
<path transform="matrix(1,0,0,-1,200.645,74.02301)" stroke-width="1.19553" stroke-linecap="butt" stroke-miterlimit="10" stroke-linejoin="miter" fill="none" stroke="#ff0000" d="M0-132.44699V-80.78522H94.25282V-37.47133"/>
<path transform="matrix(0,-1,-1,-0,294.89784,114.70628)" d="M6.66628 0 1.93044 1.79556 3.5108 0 1.93044-1.79556Z" fill="#ff0000"/>
<path transform="matrix(0,-1,-1,-0,294.89784,114.70628)" stroke-width="1.19553" stroke-linecap="butt" stroke-miterlimit="10" stroke-linejoin="miter" fill="none" stroke="#ff0000" d="M6.66628 0 1.93044 1.79556 3.5108 0 1.93044-1.79556Z"/>
<text fill="#ff0000" xml:space="preserve" transform="matrix(.95 0 -0 .95 9.368301 297.23493)" font-size="11.9552" font-family="CMSSBX10" font-weight="bold"><tspan y="-154.022" x="187.366 196.85843 203.56529 208.61038 214.71949 219.16683 225.14443 231.4209 236.2508 239.31133 245.88669 256.9811 263.688 270.7535 277.4604 283.73689 288.56678">Observationupdate</tspan></text>
<path transform="matrix(1,0,0,-1,200.645,74.02301)" d="M99.63657-134.64105C99.63657-131.66654 97.22531-129.25527 94.25078-129.25527 91.27626-129.25527 88.86499-131.66654 88.86499-134.64105 88.86499-137.61559 91.27626-140.02684 94.25078-140.02684 97.22531-140.02684 99.63657-137.61559 99.63657-134.64105ZM94.25078-134.64105" fill="#ffffff"/>
<path transform="matrix(1,0,0,-1,200.645,74.02301)" stroke-width=".99628" stroke-linecap="butt" stroke-miterlimit="10" stroke-linejoin="miter" fill="none" stroke="#009600" d="M99.63657-134.64105C99.63657-131.66654 97.22531-129.25527 94.25078-129.25527 91.27626-129.25527 88.86499-131.66654 88.86499-134.64105 88.86499-137.61559 91.27626-140.02684 94.25078-140.02684 97.22531-140.02684 99.63657-137.61559 99.63657-134.64105ZM94.25078-134.64105"/>
<path transform="matrix(1,0,0,-1,200.645,74.02301)" stroke-width=".99628" stroke-linecap="butt" stroke-miterlimit="10" stroke-linejoin="miter" fill="none" stroke="#009600" d="M89.81145-134.64105H98.69011"/>
<path transform="matrix(1,0,0,-1,200.645,74.02301)" stroke-width=".99628" stroke-linecap="butt" stroke-miterlimit="10" stroke-linejoin="miter" fill="none" stroke="#009600" d="M94.25078-139.0804V-130.20174"/>
<path transform="matrix(1,0,0,-1,200.645,74.02301)" stroke-width="1.19553" stroke-linecap="butt" stroke-miterlimit="10" stroke-linejoin="miter" fill="none" stroke="#009600" d="M2.19693-134.64397 83.71025-134.64398"/>
<path transform="matrix(1,0,0,-1,281.1433,208.66699)" d="M6.66628 0 1.93044 1.79556 3.5108 0 1.93044-1.79556Z" fill="#009600"/>
<path transform="matrix(1,0,0,-1,281.1433,208.66699)" stroke-width="1.19553" stroke-linecap="butt" stroke-miterlimit="10" stroke-linejoin="miter" fill="none" stroke="#009600" d="M6.66628 0 1.93044 1.79556 3.5108 0 1.93044-1.79556Z"/>
<path transform="matrix(1,0,0,-1,200.645,74.02301)" stroke-width="1.19553" stroke-linecap="butt" stroke-miterlimit="10" stroke-linejoin="miter" fill="none" stroke="#009600" d="M2.19693-188.50151 94.25282-188.50159V-145.18656"/>
<path transform="matrix(0,-1,-1,-0,294.89784,222.4215)" d="M6.66628 0 1.93044 1.79556 3.5108 0 1.93044-1.79556Z" fill="#009600"/>
<path transform="matrix(0,-1,-1,-0,294.89784,222.4215)" stroke-width="1.19553" stroke-linecap="butt" stroke-miterlimit="10" stroke-linejoin="miter" fill="none" stroke="#009600" d="M6.66628 0 1.93044 1.79556 3.5108 0 1.93044-1.79556Z"/>
<text fill="#009600" xml:space="preserve" transform="matrix(.95 0 -0 .95 9.440811 301.61106)" font-size="11.9552" font-family="CMSSBX10" font-weight="bold"><tspan y="-66.499" x="188.816 196.12062 202.22974 208.14756 212.5949 218.441 225.14786 231.25696 235.7043 240.74939 248.7833 255.49016 261.46778 268.17466 274.45115 284.8163 287.87684 293.72294">Searchers&#x2019;dynamics</tspan></text>
<path transform="matrix(1,0,0,-1,200.645,74.02301)" d="M163.58405-26.92937C163.58405-25.82051 162.68515-24.92162 161.5763-24.92162 160.46743-24.92162 159.56853-25.82051 159.56853-26.92937 159.56853-28.03824 160.46743-28.93712 161.5763-28.93712 162.68515-28.93712 163.58405-28.03824 163.58405-26.92937ZM161.5763-26.92937" fill="#46b4dc"/>
<text fill="#46b4dc" xml:space="preserve" transform="matrix(.95 0 -0 .95 15.764587 295.362)" font-size="11.9552" font-family="NimbusRomNo9L" font-style="italic"><tspan y="-191.48" x="316.188">p</tspan></text>
<text fill="#46b4dc" xml:space="preserve" transform="matrix(.95 0 -0 .95 15.764587 295.362)" font-size="11.9552" font-family="CMR10"><tspan y="-191.48" x="322.16499">(</tspan></text>
<text fill="#46b4dc" xml:space="preserve" transform="matrix(.95 0 -0 .95 15.764587 295.362)" font-size="11.9552" font-family="NimbusRomNo9L" font-weight="bold"><tspan y="-191.48" x="326.804">x</tspan></text>
<text fill="#46b4dc" xml:space="preserve" transform="matrix(.95 0 -0 .95 15.764587 295.362)" font-size="11.9552" font-family="CMMI10" font-style="italic"><tspan y="-191.48" x="332.78199">,</tspan></text>
<text fill="#46b4dc" xml:space="preserve" transform="matrix(.95 0 -0 .95 15.764587 295.362)" font-size="11.9552" font-family="NimbusRomNo9L" font-style="italic"><tspan y="-191.48" x="337.12199">t</tspan></text>
<text fill="#46b4dc" xml:space="preserve" transform="matrix(.95 0 -0 .95 15.764587 295.362)" font-size="8.9664" font-family="NimbusRomNo9L" font-style="italic"><tspan y="-189.42" x="340.44599">k</tspan></text>
<text fill="#46b4dc" xml:space="preserve" transform="matrix(.95 0 -0 .95 15.764587 295.362)" font-size="8.9664" font-family="CMR10"><tspan y="-189.42" x="344.57899">+</tspan></text>
<text fill="#46b4dc" xml:space="preserve" transform="matrix(.95 0 -0 .95 15.764587 295.362)" font-size="8.9664" font-family="NimbusRomNo9L"><tspan y="-189.42" x="351.546">1</tspan></text>
<text fill="#46b4dc" xml:space="preserve" transform="matrix(.95 0 -0 .95 15.764587 295.362)" font-size="11.9552" font-family="CMR10"><tspan y="-191.48" x="356.52699">)</tspan></text>
<path transform="matrix(1,0,0,-1,200.645,74.02301)" stroke-width="1.19553" stroke-linecap="butt" stroke-miterlimit="10" stroke-linejoin="miter" fill="none" stroke="#46b4dc" d="M99.63861-26.92877H154.21904"/>
<path transform="matrix(1,0,0,-1,351.6521,100.95178)" d="M6.66628 0 1.93044 1.79556 3.5108 0 1.93044-1.79556Z" fill="#46b4dc"/>
<path transform="matrix(1,0,0,-1,351.6521,100.95178)" stroke-width="1.19553" stroke-linecap="butt" stroke-miterlimit="10" stroke-linejoin="miter" fill="none" stroke="#46b4dc" d="M6.66628 0 1.93044 1.79556 3.5108 0 1.93044-1.79556Z"/>
<path transform="matrix(1,0,0,-1,200.645,74.02301)" d="M163.58405-134.6469C163.58405-133.53803 162.68515-132.63915 161.5763-132.63915 160.46743-132.63915 159.56853-133.53803 159.56853-134.6469 159.56853-135.75576 160.46743-136.65465 161.5763-136.65465 162.68515-136.65465 163.58405-135.75576 163.58405-134.6469ZM161.5763-134.6469" fill="#009600"/>
<text fill="#009600" xml:space="preserve" transform="matrix(.95 0 -0 .95 16.864014 300.59037)" font-size="11.9552" font-family="NimbusRomNo9L" font-weight="bold"><tspan y="-86.913" x="337.28">q</tspan></text>
<text fill="#009600" xml:space="preserve" transform="matrix(.95 0 -0 .95 16.864014 300.59037)" font-size="8.9664" font-family="NimbusRomNo9L" font-style="italic"><tspan y="-84.852008" x="343.927">k</tspan></text>
<text fill="#009600" xml:space="preserve" transform="matrix(.95 0 -0 .95 16.864014 300.59037)" font-size="8.9664" font-family="CMR10"><tspan y="-84.852008" x="348.06">+</tspan></text>
<text fill="#009600" xml:space="preserve" transform="matrix(.95 0 -0 .95 16.864014 300.59037)" font-size="8.9664" font-family="NimbusRomNo9L"><tspan y="-84.852008" x="355.027">1</tspan></text>
<path transform="matrix(1,0,0,-1,200.645,74.02301)" stroke-width="1.19553" stroke-linecap="butt" stroke-miterlimit="10" stroke-linejoin="miter" fill="none" stroke="#009600" d="M99.63861-134.64398 154.21906-134.64392"/>
<path transform="matrix(1,0,0,-1,351.65214,208.66693)" d="M6.66628 0 1.93044 1.79556 3.5108 0 1.93044-1.79556Z" fill="#009600"/>
<path transform="matrix(1,0,0,-1,351.65214,208.66693)" stroke-width="1.19553" stroke-linecap="butt" stroke-miterlimit="10" stroke-linejoin="miter" fill="none" stroke="#009600" d="M6.66628 0 1.93044 1.79556 3.5108 0 1.93044-1.79556Z"/>
<path transform="matrix(1,0,0,-1,200.645,74.02301)" d="M163.58405-188.50566C163.58405-187.3968 162.68515-186.49791 161.5763-186.49791 160.46743-186.49791 159.56853-187.3968 159.56853-188.50566 159.56853-189.61454 160.46743-190.51343 161.5763-190.51343 162.68515-190.51343 163.58405-189.61454 163.58405-188.50566ZM161.5763-188.50566" fill="#009600"/>
<text fill="#009600" xml:space="preserve" transform="matrix(.95 0 -0 .95 16.864014 303.27955)" font-size="11.9552" font-family="NimbusRomNo9L" font-weight="bold"><tspan y="-33.13" x="337.28">u</tspan></text>
<text fill="#009600" xml:space="preserve" transform="matrix(.95 0 -0 .95 16.864014 303.27955)" font-size="8.9664" font-family="NimbusRomNo9L" font-style="italic"><tspan y="-31.069" x="343.927">k</tspan></text>
<text fill="#009600" xml:space="preserve" transform="matrix(.95 0 -0 .95 16.864014 303.27955)" font-size="8.9664" font-family="CMR10"><tspan y="-31.069" x="348.06">+</tspan></text>
<text fill="#009600" xml:space="preserve" transform="matrix(.95 0 -0 .95 16.864014 303.27955)" font-size="8.9664" font-family="NimbusRomNo9L"><tspan y="-31.069" x="355.027">1</tspan></text>
<path transform="matrix(1,0,0,-1,200.645,74.02301)" stroke-width="1.19553" stroke-linecap="butt" stroke-miterlimit="10" stroke-linejoin="miter" fill="none" stroke="#ff0000" d="M161.5728-29.12576V-80.78755C146.69994-80.78755 134.64344-92.84406 134.64344-107.71692L134.64342-188.50507H156.41603"/>
<path transform="matrix(1,0,0,-1,353.84913,262.52809)" d="M6.66628 0 1.93044 1.79556 3.5108 0 1.93044-1.79556Z" fill="#ff0000"/>
<path transform="matrix(1,0,0,-1,353.84913,262.52809)" stroke-width="1.19553" stroke-linecap="butt" stroke-miterlimit="10" stroke-linejoin="miter" fill="none" stroke="#ff0000" d="M6.66628 0 1.93044 1.79556 3.5108 0 1.93044-1.79556Z"/>
<text fill="#ff0000" xml:space="preserve" transform="matrix(.95 0 -0 .95 17.44284 298.24494)" font-size="11.9552" font-family="CMSSBX10" font-weight="bold"><tspan y="-133.822" x="348.856 358.34843 365.0553 369.8852 372.9457 383.31089 386.3714 392.06208 398.33857 403.16847 406.22898 412.80433">Optimization</tspan></text>
<path transform="matrix(1,0,0,-1,200.645,74.02301)" stroke-width="1.19553" stroke-linecap="butt" stroke-miterlimit="10" stroke-linejoin="miter" fill="none" stroke="#46b4dc" d="M163.76978-26.92877H210.2748"/>
<path transform="matrix(1,0,0,-1,407.70787,100.95178)" d="M6.66628 0 1.93044 1.79556 3.5108 0 1.93044-1.79556Z" fill="#46b4dc"/>
<path transform="matrix(1,0,0,-1,407.70787,100.95178)" stroke-width="1.19553" stroke-linecap="butt" stroke-miterlimit="10" stroke-linejoin="miter" fill="none" stroke="#46b4dc" d="M6.66628 0 1.93044 1.79556 3.5108 0 1.93044-1.79556Z"/>
<path transform="matrix(1,0,0,-1,200.645,74.02301)" stroke-width="1.19553" stroke-linecap="butt" stroke-miterlimit="10" stroke-linejoin="miter" fill="none" stroke="#009600" d="M163.76975-134.64392 210.2748-134.64398"/>
<path transform="matrix(1,0,0,-1,407.70787,208.66699)" d="M6.66628 0 1.93044 1.79556 3.5108 0 1.93044-1.79556Z" fill="#009600"/>
<path transform="matrix(1,0,0,-1,407.70787,208.66699)" stroke-width="1.19553" stroke-linecap="butt" stroke-miterlimit="10" stroke-linejoin="miter" fill="none" stroke="#009600" d="M6.66628 0 1.93044 1.79556 3.5108 0 1.93044-1.79556Z"/>
<path transform="matrix(1,0,0,-1,200.645,74.02301)" stroke-width="1.19553" stroke-linecap="butt" stroke-miterlimit="10" stroke-linejoin="miter" fill="none" stroke="#009600" d="M163.76975-188.50144 210.2748-188.50159"/>
<path transform="matrix(1,0,0,-1,407.70787,262.5246)" d="M6.66628 0 1.93044 1.79556 3.5108 0 1.93044-1.79556Z" fill="#009600"/>
<path transform="matrix(1,0,0,-1,407.70787,262.5246)" stroke-width="1.19553" stroke-linecap="butt" stroke-miterlimit="10" stroke-linejoin="miter" fill="none" stroke="#009600" d="M6.66628 0 1.93044 1.79556 3.5108 0 1.93044-1.79556Z"/>
<path transform="matrix(1,0,0,-1,200.645,74.02301)" stroke-width=".79701" stroke-linecap="butt" stroke-miterlimit="10" stroke-linejoin="miter" fill="none" stroke="#ff0000" d="M-200.249-225.5361V68.6438C-200.249 71.39497-198.01879 73.62518-195.26761 73.62518H324.80253C327.5537 73.62518 329.7839 71.39497 329.7839 68.6438V-225.5361C329.7839-228.28728 327.5537-230.51749 324.80253-230.51749H-195.26761C-198.01879-230.51749-200.249-228.28728-200.249-225.5361ZM329.7839 73.62518"/>
</svg>
